<svg width="30" height="215" viewBox="0 0 30 215" fill="none" xmlns="http://www.w3.org/2000/svg">
<path d="M17 2C17 0.89543 16.1046 0 15 0C13.8954 0 13 0.89543 13 2L17 2ZM13.5858 214.424C14.3668 215.205 15.6332 215.205 16.4142 214.424L29.1421 201.696C29.9232 200.915 29.9232 199.648 29.1421 198.867C28.3611 198.086 27.0948 198.086 26.3137 198.867L15 210.181L3.68629 198.867C2.90524 198.086 1.63891 198.086 0.857864 198.867C0.0768156 199.648 0.0768156 200.915 0.857864 201.696L13.5858 214.424ZM13 2L13 213.009H17L17 2L13 2Z" fill="#FFC8B0"/>
</svg>
