<svg width="43" height="44" viewBox="0 0 43 44" fill="none" xmlns="http://www.w3.org/2000/svg">
<path d="M40.0129 17.1722C42.0542 13.0721 26.9783 15.3055 26.9783 15.3055C26.9783 15.3055 23.8091 4.53467 20.9459 2.45622C18.0827 0.377764 15.1591 14.4301 15.1591 14.4301C15.1591 14.4301 2.90592 15.3652 2.0816 18.55C1.2573 21.7347 10.892 27.1664 10.892 27.1664C10.892 27.1664 9.42277 39.9969 11.7922 41.7322C14.1616 43.4676 22.9343 34.0664 22.9343 34.0664C22.9343 34.0664 30.8398 39.5229 33.9141 38.9076C36.9884 38.2923 30.9974 27.0493 30.9974 27.0493C30.9974 27.0493 37.9717 21.2722 40.0129 17.1722Z" stroke="#EBFBE4" stroke-width="4" stroke-linecap="round"/>
</svg>
