<svg width="59" height="60" viewBox="0 0 59 60" fill="none" xmlns="http://www.w3.org/2000/svg">
<path d="M55.7776 22.9527C58.6264 17.2306 37.5863 20.3476 37.5863 20.3476C37.5863 20.3476 33.1633 5.31562 29.1673 2.4149C25.1714 -0.485825 21.0912 19.1258 21.0912 19.1258C21.0912 19.1258 3.9905 20.4309 2.84008 24.8756C1.68966 29.3203 15.1359 36.9007 15.1359 36.9007C15.1359 36.9007 13.0855 54.8072 16.3923 57.2291C19.699 59.651 31.9424 46.5306 31.9424 46.5306C31.9424 46.5306 42.9755 54.1456 47.266 53.2869C51.5564 52.4283 43.1953 36.7373 43.1953 36.7373C43.1953 36.7373 52.9288 28.6748 55.7776 22.9527Z" stroke="#EBFBE4" stroke-width="4" stroke-linecap="round"/>
</svg>
