<svg width="58" height="59" viewBox="0 0 58 59" fill="none" xmlns="http://www.w3.org/2000/svg">
<path d="M47.6971 7.71616C47.4365 1.32944 30.5012 14.1979 30.5012 14.1979C30.5012 14.1979 19.383 3.15679 14.4839 2.54019C9.58474 1.9236 15.4583 21.0747 15.4583 21.0747C15.4583 21.0747 1.10207 30.4575 2.23544 34.9066C3.3688 39.3556 18.8038 39.5198 18.8038 39.5198C18.8038 39.5198 25.6344 56.1988 29.6989 56.7278C33.7635 57.2568 38.1706 39.8609 38.1706 39.8609C38.1706 39.8609 51.5077 41.218 54.8536 38.3984C58.1996 35.5788 43.3129 25.8575 43.3129 25.8575C43.3129 25.8575 47.9576 14.1029 47.6971 7.71616Z" stroke="#E3ECD9" stroke-width="4" stroke-linecap="round"/>
</svg>
