<svg width="1101" height="1174" viewBox="0 0 1101 1174" fill="none" xmlns="http://www.w3.org/2000/svg">
<path fill-rule="evenodd" clip-rule="evenodd" d="M15.2508 309.868C37.2931 189.324 168.563 103.902 316.537 108.759C454.899 113.3 557.639 254.458 685.397 331.862C801.937 402.47 973.249 425.743 1021.54 535.893C1069.8 645.998 937.108 708.989 890.545 799.829C841.378 895.749 863.925 1043.76 745.291 1074.83C622.671 1106.93 456.825 1036.35 343.226 943.135C245.128 862.636 271.977 745.387 218.874 642.854C157.926 525.174 -5.07746 421.039 15.2508 309.868Z" fill="#F1E1A6" fill-opacity="0.8"/>
<path fill-rule="evenodd" clip-rule="evenodd" d="M140.579 381.502C159.611 286.942 260.647 217.682 372.573 218.596C477.228 219.449 552.258 327.68 647.468 385.638C734.318 438.508 863.552 453.348 897.964 538.424C932.362 623.465 830.681 675.236 793.665 747.079C754.578 822.938 768.767 938.084 678.353 964.648C584.902 992.105 460.727 940.217 376.543 869.634C303.847 808.682 326.453 716.6 288.248 637.566C244.398 546.857 123.027 468.71 140.579 381.502Z" fill="#F4BBBB"/>
</svg>
