<svg width="54" height="49" viewBox="0 0 54 49" fill="none" xmlns="http://www.w3.org/2000/svg">
<path d="M26.266 14.4135C26.6705 8.91232 30.0276 5.4124 35.3985 4.03176C39.5169 2.97309 45.7844 3.27379 48.4026 7.23062C51.8841 12.4922 51.6463 18.3751 48.4866 23.7376C45.9788 27.9937 42.7529 31.7673 39.5652 35.5436C36.537 39.1308 33.4448 42.598 29.6694 45.4241M25.9278 13.7374C22.91 8.85029 20.927 7.74587 15.641 7.67679C11.5877 7.62381 5.85137 9.33158 4.32089 13.6288C2.28574 19.343 3.8355 24.792 7.97363 29.089C11.2579 32.4995 15.0982 35.2953 18.9038 38.1022C22.5188 40.7686 25.5136 42.9628 29.6704 45.4241" stroke="#EEFEE2" stroke-width="6" stroke-linecap="round"/>
</svg>
