<svg width="45" height="38" viewBox="0 0 45 38" fill="none" xmlns="http://www.w3.org/2000/svg">
<path d="M22.1768 10.4809C23.4365 6.24278 26.6652 4.07784 31.1073 3.91756C34.5136 3.79465 39.3696 5.1046 40.7413 8.65169C42.5654 13.3684 41.3706 17.934 37.9771 21.5912C35.2838 24.4938 32.111 26.8956 28.9676 29.306C25.9816 31.5957 22.9659 33.7803 19.5253 35.346M22.0279 9.8935C20.5027 5.54953 19.1393 4.34478 15.0122 3.38448C11.8475 2.64812 7.0631 3.00189 5.12801 6.10428C2.55484 10.2297 2.83417 14.7619 5.33768 18.836C7.32465 22.0695 9.85233 24.917 12.3509 27.7672C14.7244 30.4748 16.6932 32.7063 19.526 35.3462" stroke="#EEFEE2" stroke-width="5" stroke-linecap="round"/>
</svg>
