<svg width="1374" height="1397" viewBox="0 0 1374 1397" fill="none" xmlns="http://www.w3.org/2000/svg">
<path fill-rule="evenodd" clip-rule="evenodd" d="M1074.33 208.67C1206.45 250.867 1283.33 410.588 1256.45 575.987C1231.32 730.642 1057.99 825.53 952.603 957.731C856.47 1078.33 805.54 1267.25 674.903 1305.51C544.32 1343.75 492.827 1185.67 397.6 1120.25C297.048 1051.17 127.634 1055.05 109.945 917.383C91.6606 775.092 194.901 599.148 315.989 485.13C420.553 386.67 548.279 433.786 671.063 389.024C811.985 337.649 952.48 169.754 1074.33 208.67Z" fill="#F1E1A6" fill-opacity="0.8"/>
<path fill-rule="evenodd" clip-rule="evenodd" d="M957.535 270.831C1067.84 311.216 1139.5 440.645 1126.7 568.778C1114.72 688.589 978.337 753.355 899.538 851.126C827.658 940.312 796.499 1085.56 691.864 1108.3C587.273 1131.04 536.442 1004.31 455.003 947.763C369.01 888.059 230.785 881.718 208.708 772.851C185.889 660.326 260.513 528.157 353.149 445.505C433.145 374.132 540.128 418.128 637.984 389.846C750.298 357.386 855.811 233.587 957.535 270.831Z" fill="#F4BBBB" fill-opacity="0.8"/>
</svg>
