<svg width="1436" height="347" viewBox="0 0 1436 347" fill="none" xmlns="http://www.w3.org/2000/svg">
<path d="M3.99622 4C329.496 507.5 1311 301 1311 301" stroke="#8C9DDA" stroke-width="8" stroke-linecap="round"/>
<circle cx="1396.22" cy="293.278" r="39.2784" fill="#8C9DDA"/>
<path d="M1373.96 273.638C1373.96 281.592 1367.51 288.04 1359.56 288.04C1351.6 288.04 1345.16 281.592 1345.16 273.638C1345.16 265.684 1351.6 259.236 1359.56 259.236C1403.42 255.309 1373.96 265.684 1373.96 273.638Z" fill="#8C9DDA"/>
<path d="M1377.89 299.374C1377.89 307.328 1371.44 313.776 1363.49 313.776C1355.53 313.776 1349.08 307.328 1349.08 299.374C1349.08 291.419 1355.53 284.971 1363.49 284.971C1407.35 281.045 1377.89 291.419 1377.89 299.374Z" fill="#8C9DDA"/>
<circle cx="1336.65" cy="278.222" r="4.58247" fill="#8C9DDA"/>
<path d="M1353.72 307.026C1353.72 309.557 1363.59 310.954 1348.78 311.608C1346.06 311.608 1343.85 309.557 1343.85 307.026C1343.85 304.495 1346.06 302.443 1348.78 302.443C1351.51 302.443 1353.72 304.495 1353.72 307.026Z" fill="#8C9DDA"/>
<circle cx="1313.08" cy="287.387" r="4.58247" fill="#8C9DDA"/>
<circle cx="1325.52" cy="298.515" r="3.92783" fill="#8C9DDA"/>
<circle cx="1337.3" cy="293.278" r="3.92783" fill="#8C9DDA"/>
</svg>
