<svg width="1362" height="240" viewBox="0 0 1362 240" fill="none" xmlns="http://www.w3.org/2000/svg">
<path d="M4.49609 4C301.996 354 1236 202.5 1236 202.5" stroke="#88AD7B" stroke-width="8" stroke-linecap="round"/>
<circle cx="1322.22" cy="192.278" r="39.2784" fill="#88AD7B"/>
<path d="M1299.96 172.638C1299.96 180.592 1293.51 187.04 1285.56 187.04C1277.6 187.04 1271.16 180.592 1271.16 172.638C1271.16 164.684 1277.6 158.236 1285.56 158.236C1329.42 154.309 1299.96 164.684 1299.96 172.638Z" fill="#88AD7B"/>
<path d="M1303.89 198.374C1303.89 206.328 1297.44 212.776 1289.49 212.776C1281.53 212.776 1275.08 206.328 1275.08 198.374C1275.08 190.419 1281.53 183.971 1289.49 183.971C1333.35 180.045 1303.89 190.419 1303.89 198.374Z" fill="#88AD7B"/>
<circle cx="1262.65" cy="177.222" r="4.58247" fill="#88AD7B"/>
<path d="M1279.72 206.026C1279.72 208.557 1289.59 209.954 1274.78 210.608C1272.06 210.608 1269.85 208.557 1269.85 206.026C1269.85 203.495 1272.06 201.443 1274.78 201.443C1277.51 201.443 1279.72 203.495 1279.72 206.026Z" fill="#88AD7B"/>
<circle cx="1239.08" cy="186.387" r="4.58247" fill="#88AD7B"/>
<circle cx="1251.52" cy="197.515" r="3.92783" fill="#88AD7B"/>
<circle cx="1263.3" cy="192.278" r="3.92783" fill="#88AD7B"/>
</svg>
