<svg width="68" height="62" viewBox="0 0 68 62" fill="none" xmlns="http://www.w3.org/2000/svg">
<path d="M34.7583 21.0139C38.7035 15.0806 44.7014 13.2723 51.6207 15.1263C56.9265 16.548 63.7879 20.8627 64.2236 26.9761C64.8028 35.1053 60.8029 41.5739 53.8453 45.6031C48.3233 48.801 42.2994 51.0005 36.3167 53.2271C30.6336 55.3423 24.9545 57.2817 18.9134 58.0665M34.8067 20.0385C34.5116 12.625 32.981 10.1242 27.077 6.69278C22.5498 4.0616 15.0118 2.34381 10.5634 6.20807C4.64806 11.3466 2.93483 18.461 4.86483 25.9214C6.39661 31.8426 8.94396 37.4249 11.4452 42.9976C13.8211 48.2914 15.7988 52.6604 18.9145 58.0671" stroke="#F7DDDA" stroke-width="7" stroke-linecap="round"/>
</svg>
