<svg width="1284" height="150" viewBox="0 0 1284 150" fill="none" xmlns="http://www.w3.org/2000/svg">
<path d="M4.49603 4C507.496 249 1160.5 101 1160.5 101" stroke="#F16D6D" stroke-width="8" stroke-linecap="round"/>
<circle cx="1244.22" cy="93.2784" r="39.2784" fill="#F16D6D"/>
<path d="M1221.96 73.6382C1221.96 81.5922 1215.51 88.0402 1207.56 88.0402C1199.6 88.0402 1193.16 81.5922 1193.16 73.6382C1193.16 65.6841 1199.6 59.2361 1207.56 59.2361C1251.42 55.3092 1221.96 65.6841 1221.96 73.6382Z" fill="#F16D6D"/>
<path d="M1225.89 99.3736C1225.89 107.328 1219.44 113.776 1211.49 113.776C1203.53 113.776 1197.08 107.328 1197.08 99.3736C1197.08 91.4196 1203.53 84.9716 1211.49 84.9716C1255.35 81.0447 1225.89 91.4196 1225.89 99.3736Z" fill="#F16D6D"/>
<circle cx="1184.65" cy="78.2216" r="4.58247" fill="#F16D6D"/>
<path d="M1201.72 107.026C1201.72 109.557 1211.59 110.954 1196.78 111.608C1194.06 111.608 1191.85 109.557 1191.85 107.026C1191.85 104.495 1194.06 102.443 1196.78 102.443C1199.51 102.443 1201.72 104.495 1201.72 107.026Z" fill="#F16D6D"/>
<circle cx="1161.08" cy="87.3866" r="4.58247" fill="#F16D6D"/>
<circle cx="1173.52" cy="98.5155" r="3.92783" fill="#F16D6D"/>
<circle cx="1185.3" cy="93.2783" r="3.92783" fill="#F16D6D"/>
</svg>
