<svg width="2474" height="1535" viewBox="0 0 2474 1535" fill="none" xmlns="http://www.w3.org/2000/svg">
<path d="M221.992 196H2141.99V1201H221.992V196Z" fill="#F4C4BA"/>
<ellipse cx="2057.38" cy="269.678" rx="92.5425" ry="134.39" transform="rotate(90 2057.38 269.678)" fill="#F4C4BA"/>
<path d="M2124.58 217.238C2097.37 217.238 2075.3 202.047 2075.3 183.306C2075.3 164.566 2097.37 149.374 2124.58 149.374C2151.8 149.374 2173.86 164.566 2173.86 183.306C2187.29 286.645 2151.8 217.238 2124.58 217.238Z" fill="#F4C4BA"/>
<path d="M2036.53 226.493C2009.32 226.493 1987.25 211.301 1987.25 192.561C1987.25 173.821 2009.32 158.629 2036.53 158.629C2063.74 158.629 2085.81 173.821 2085.81 192.561C2099.24 295.9 2063.74 226.493 2036.53 226.493Z" fill="#F4C4BA"/>
<ellipse cx="2108.9" cy="129.323" rx="10.7966" ry="15.6788" transform="rotate(90 2108.9 129.323)" fill="#F4C4BA"/>
<path d="M2010.35 169.542C2001.69 169.542 1996.91 192.797 1994.67 157.915C1994.67 151.494 2001.69 146.288 2010.35 146.288C2019.01 146.288 2026.03 151.494 2026.03 157.915C2026.03 164.337 2019.01 169.542 2010.35 169.542Z" fill="#F4C4BA"/>
<ellipse cx="2077.54" cy="73.7966" rx="10.7966" ry="15.6788" transform="rotate(90 2077.54 73.7966)" fill="#F4C4BA"/>
<ellipse cx="2039.47" cy="103.102" rx="9.25425" ry="13.439" transform="rotate(90 2039.47 103.102)" fill="#F4C4BA"/>
<ellipse cx="2057.38" cy="130.864" rx="9.25425" ry="13.439" transform="rotate(90 2057.38 130.864)" fill="#F4C4BA"/>
<ellipse cx="92.5425" cy="134.39" rx="92.5425" ry="134.39" transform="matrix(4.37114e-08 1 1 -4.37114e-08 1823.99 177.136)" fill="#F4C4BA"/>
<path d="M1891.19 217.238C1918.4 217.238 1940.46 202.047 1940.46 183.306C1940.46 164.566 1918.4 149.374 1891.19 149.374C1863.97 149.374 1841.91 164.566 1841.91 183.306C1828.47 286.645 1863.97 217.238 1891.19 217.238Z" fill="#F4C4BA"/>
<path d="M1979.24 226.493C2006.45 226.493 2028.51 211.301 2028.51 192.561C2028.51 173.821 2006.45 158.629 1979.24 158.629C1952.02 158.629 1929.96 173.821 1929.96 192.561C1916.52 295.9 1952.02 226.493 1979.24 226.493Z" fill="#F4C4BA"/>
<ellipse cx="10.7966" cy="15.6788" rx="10.7966" ry="15.6788" transform="matrix(4.37114e-08 1 1 -4.37114e-08 1891.19 118.526)" fill="#F4C4BA"/>
<path d="M2005.41 169.542C2014.07 169.542 2018.85 192.797 2021.09 157.915C2021.09 151.494 2014.07 146.288 2005.41 146.288C1996.75 146.288 1989.73 151.494 1989.73 157.915C1989.73 164.337 1996.75 169.542 2005.41 169.542Z" fill="#F4C4BA"/>
<ellipse cx="10.7966" cy="15.6788" rx="10.7966" ry="15.6788" transform="matrix(4.37114e-08 1 1 -4.37114e-08 1922.55 63)" fill="#F4C4BA"/>
<ellipse cx="9.25425" cy="13.439" rx="9.25425" ry="13.439" transform="matrix(4.37114e-08 1 1 -4.37114e-08 1962.86 93.8477)" fill="#F4C4BA"/>
<ellipse cx="9.25425" cy="13.439" rx="9.25425" ry="13.439" transform="matrix(4.37114e-08 1 1 -4.37114e-08 1944.95 121.609)" fill="#F4C4BA"/>
<ellipse cx="103.058" cy="134.39" rx="103.058" ry="134.39" transform="matrix(4.37114e-08 1 1 -4.37114e-08 1675.99 201.104)" fill="#F4C4BA"/>
<path d="M1743.19 245.764C1770.4 245.764 1792.46 228.846 1792.46 207.976C1792.46 187.107 1770.4 170.188 1743.19 170.188C1715.97 170.188 1693.91 187.107 1693.91 207.976C1680.47 323.058 1715.97 245.764 1743.19 245.764Z" fill="#F4C4BA"/>
<path d="M1831.24 256.071C1858.45 256.071 1880.51 239.153 1880.51 218.283C1880.51 197.413 1858.45 180.495 1831.24 180.495C1804.02 180.495 1781.96 197.413 1781.96 218.283C1768.52 333.364 1804.02 256.071 1831.24 256.071Z" fill="#F4C4BA"/>
<ellipse cx="12.0234" cy="15.6788" rx="12.0234" ry="15.6788" transform="matrix(4.37114e-08 1 1 -4.37114e-08 1743.19 135.836)" fill="#F4C4BA"/>
<path d="M1857.41 192.649C1866.07 192.649 1870.85 218.545 1873.09 179.7C1873.09 172.549 1866.07 166.752 1857.41 166.752C1848.75 166.752 1841.73 172.549 1841.73 179.7C1841.73 186.851 1848.75 192.649 1857.41 192.649Z" fill="#F4C4BA"/>
<ellipse cx="12.0234" cy="15.6788" rx="12.0234" ry="15.6788" transform="matrix(4.37114e-08 1 1 -4.37114e-08 1774.55 74)" fill="#F4C4BA"/>
<ellipse cx="10.3058" cy="13.439" rx="10.3058" ry="13.439" transform="matrix(4.37114e-08 1 1 -4.37114e-08 1814.86 108.353)" fill="#F4C4BA"/>
<ellipse cx="10.3058" cy="13.439" rx="10.3058" ry="13.439" transform="matrix(4.37114e-08 1 1 -4.37114e-08 1796.95 139.27)" fill="#F4C4BA"/>
<ellipse cx="103.058" cy="134.39" rx="103.058" ry="134.39" transform="matrix(4.37114e-08 1 1 -4.37114e-08 1489.99 127.104)" fill="#F4C4BA"/>
<path d="M1557.19 171.764C1584.4 171.764 1606.46 154.846 1606.46 133.976C1606.46 113.107 1584.4 96.1885 1557.19 96.1885C1529.97 96.1885 1507.91 113.107 1507.91 133.976C1494.47 249.058 1529.97 171.764 1557.19 171.764Z" fill="#F4C4BA"/>
<path d="M1645.24 182.071C1672.45 182.071 1694.51 165.153 1694.51 144.283C1694.51 123.413 1672.45 106.495 1645.24 106.495C1618.02 106.495 1595.96 123.413 1595.96 144.283C1582.52 259.364 1618.02 182.071 1645.24 182.071Z" fill="#F4C4BA"/>
<ellipse cx="12.0234" cy="15.6788" rx="12.0234" ry="15.6788" transform="matrix(4.37114e-08 1 1 -4.37114e-08 1557.19 61.8359)" fill="#F4C4BA"/>
<path d="M1671.41 118.649C1680.07 118.649 1684.85 144.545 1687.09 105.7C1687.09 98.5491 1680.07 92.752 1671.41 92.752C1662.75 92.752 1655.73 98.5491 1655.73 105.7C1655.73 112.851 1662.75 118.649 1671.41 118.649Z" fill="#F4C4BA"/>
<ellipse cx="12.0234" cy="15.6788" rx="12.0234" ry="15.6788" transform="matrix(4.37114e-08 1 1 -4.37114e-08 1588.55 0)" fill="#F4C4BA"/>
<ellipse cx="10.3058" cy="13.439" rx="10.3058" ry="13.439" transform="matrix(4.37114e-08 1 1 -4.37114e-08 1628.86 34.3525)" fill="#F4C4BA"/>
<ellipse cx="10.3058" cy="13.439" rx="10.3058" ry="13.439" transform="matrix(4.37114e-08 1 1 -4.37114e-08 1610.95 65.2695)" fill="#F4C4BA"/>
<ellipse cx="1458.38" cy="254.162" rx="103.058" ry="134.39" transform="rotate(90 1458.38 254.162)" fill="#F4C4BA"/>
<path d="M1525.58 195.764C1498.37 195.764 1476.3 178.846 1476.3 157.976C1476.3 137.107 1498.37 120.188 1525.58 120.188C1552.8 120.188 1574.86 137.107 1574.86 157.976C1588.29 273.058 1552.8 195.764 1525.58 195.764Z" fill="#F4C4BA"/>
<path d="M1437.53 206.071C1410.32 206.071 1388.25 189.153 1388.25 168.283C1388.25 147.413 1410.32 130.495 1437.53 130.495C1464.74 130.495 1486.81 147.413 1486.81 168.283C1500.24 283.364 1464.74 206.071 1437.53 206.071Z" fill="#F4C4BA"/>
<ellipse cx="1509.9" cy="97.8594" rx="12.0234" ry="15.6788" transform="rotate(90 1509.9 97.8594)" fill="#F4C4BA"/>
<path d="M1411.35 142.649C1402.69 142.649 1397.91 168.545 1395.67 129.7C1395.67 122.549 1402.69 116.752 1411.35 116.752C1420.01 116.752 1427.03 122.549 1427.03 129.7C1427.03 136.851 1420.01 142.649 1411.35 142.649Z" fill="#F4C4BA"/>
<ellipse cx="1478.54" cy="36.0234" rx="12.0234" ry="15.6788" transform="rotate(90 1478.54 36.0234)" fill="#F4C4BA"/>
<ellipse cx="1440.47" cy="68.6583" rx="10.3058" ry="13.439" transform="rotate(90 1440.47 68.6583)" fill="#F4C4BA"/>
<ellipse cx="1458.38" cy="99.5753" rx="10.3058" ry="13.439" transform="rotate(90 1458.38 99.5753)" fill="#F4C4BA"/>
<ellipse cx="103.058" cy="134.39" rx="103.058" ry="134.39" transform="matrix(4.37114e-08 1 1 -4.37114e-08 1181.99 189.104)" fill="#F4C4BA"/>
<path d="M1249.19 233.764C1276.4 233.764 1298.46 216.846 1298.46 195.976C1298.46 175.107 1276.4 158.188 1249.19 158.188C1221.97 158.188 1199.91 175.107 1199.91 195.976C1186.47 311.058 1221.97 233.764 1249.19 233.764Z" fill="#F4C4BA"/>
<path d="M1337.24 244.071C1364.45 244.071 1386.51 227.153 1386.51 206.283C1386.51 185.413 1364.45 168.495 1337.24 168.495C1310.02 168.495 1287.96 185.413 1287.96 206.283C1274.52 321.364 1310.02 244.071 1337.24 244.071Z" fill="#F4C4BA"/>
<ellipse cx="12.0234" cy="15.6788" rx="12.0234" ry="15.6788" transform="matrix(4.37114e-08 1 1 -4.37114e-08 1249.19 123.836)" fill="#F4C4BA"/>
<path d="M1363.41 180.649C1372.07 180.649 1376.85 206.545 1379.09 167.7C1379.09 160.549 1372.07 154.752 1363.41 154.752C1354.75 154.752 1347.73 160.549 1347.73 167.7C1347.73 174.851 1354.75 180.649 1363.41 180.649Z" fill="#F4C4BA"/>
<ellipse cx="12.0234" cy="15.6788" rx="12.0234" ry="15.6788" transform="matrix(4.37114e-08 1 1 -4.37114e-08 1280.55 62)" fill="#F4C4BA"/>
<ellipse cx="10.3058" cy="13.439" rx="10.3058" ry="13.439" transform="matrix(4.37114e-08 1 1 -4.37114e-08 1320.86 96.3525)" fill="#F4C4BA"/>
<ellipse cx="10.3058" cy="13.439" rx="10.3058" ry="13.439" transform="matrix(4.37114e-08 1 1 -4.37114e-08 1302.95 127.27)" fill="#F4C4BA"/>
<ellipse cx="1137.88" cy="277.894" rx="95.326" ry="102.891" transform="rotate(90 1137.88 277.894)" fill="#F4C4BA"/>
<path d="M1189.33 223.877C1168.49 223.877 1151.6 208.228 1151.6 188.925C1151.6 169.621 1168.49 153.972 1189.33 153.972C1210.17 153.972 1227.06 169.621 1227.06 188.925C1237.34 295.372 1210.17 223.877 1189.33 223.877Z" fill="#F4C4BA"/>
<path d="M1121.92 233.411C1101.08 233.411 1084.19 217.762 1084.19 198.458C1084.19 179.154 1101.08 163.505 1121.92 163.505C1142.75 163.505 1159.64 179.154 1159.64 198.458C1169.93 304.905 1142.75 233.411 1121.92 233.411Z" fill="#F4C4BA"/>
<ellipse cx="1177.32" cy="133.318" rx="11.1214" ry="12.0039" transform="rotate(90 1177.32 133.318)" fill="#F4C4BA"/>
<path d="M1101.87 174.747C1095.25 174.747 1091.59 198.7 1089.87 162.77C1089.87 156.155 1095.25 150.793 1101.88 150.793C1108.5 150.793 1113.88 156.155 1113.88 162.77C1113.88 169.384 1108.5 174.747 1101.87 174.747Z" fill="#F4C4BA"/>
<ellipse cx="1153.31" cy="76.1214" rx="11.1214" ry="12.0039" transform="rotate(90 1153.31 76.1214)" fill="#F4C4BA"/>
<ellipse cx="1124.17" cy="106.308" rx="9.5326" ry="10.2891" transform="rotate(90 1124.17 106.308)" fill="#F4C4BA"/>
<ellipse cx="1137.88" cy="134.906" rx="9.5326" ry="10.2891" transform="rotate(90 1137.88 134.906)" fill="#F4C4BA"/>
<ellipse cx="1030.88" cy="253.894" rx="95.326" ry="102.891" transform="rotate(90 1030.88 253.894)" fill="#F4C4BA"/>
<path d="M1082.33 199.877C1061.49 199.877 1044.6 184.228 1044.6 164.925C1044.6 145.621 1061.49 129.972 1082.33 129.972C1103.17 129.972 1120.06 145.621 1120.06 164.925C1130.34 271.372 1103.17 199.877 1082.33 199.877Z" fill="#F4C4BA"/>
<path d="M1014.92 209.411C994.081 209.411 977.19 193.762 977.19 174.458C977.19 155.154 994.081 139.505 1014.92 139.505C1035.75 139.505 1052.64 155.154 1052.64 174.458C1062.93 280.905 1035.75 209.411 1014.92 209.411Z" fill="#F4C4BA"/>
<ellipse cx="1070.32" cy="109.318" rx="11.1214" ry="12.0039" transform="rotate(90 1070.32 109.318)" fill="#F4C4BA"/>
<path d="M994.875 150.747C988.245 150.747 984.586 174.7 982.871 138.77C982.871 132.155 988.245 126.793 994.875 126.793C1001.5 126.793 1006.88 132.155 1006.88 138.77C1006.88 145.384 1001.5 150.747 994.875 150.747Z" fill="#F4C4BA"/>
<ellipse cx="1046.31" cy="52.1214" rx="11.1214" ry="12.0039" transform="rotate(90 1046.31 52.1214)" fill="#F4C4BA"/>
<ellipse cx="1017.17" cy="82.308" rx="9.5326" ry="10.2891" transform="rotate(90 1017.17 82.308)" fill="#F4C4BA"/>
<ellipse cx="1030.88" cy="110.906" rx="9.5326" ry="10.2891" transform="rotate(90 1030.88 110.906)" fill="#F4C4BA"/>
<ellipse cx="95.326" cy="102.891" rx="95.326" ry="102.891" transform="matrix(4.37114e-08 1 1 -4.37114e-08 863.992 158.568)" fill="#F4C4BA"/>
<path d="M915.436 199.877C936.272 199.877 953.163 184.228 953.163 164.925C953.163 145.621 936.272 129.972 915.436 129.972C894.6 129.972 877.709 145.621 877.709 164.925C867.423 271.372 894.6 199.877 915.436 199.877Z" fill="#F4C4BA"/>
<path d="M982.849 209.411C1003.68 209.411 1020.58 193.762 1020.58 174.458C1020.58 155.154 1003.68 139.505 982.849 139.505C962.013 139.505 945.122 155.154 945.122 174.458C934.836 280.905 962.013 209.411 982.849 209.411Z" fill="#F4C4BA"/>
<ellipse cx="11.1214" cy="12.0039" rx="11.1214" ry="12.0039" transform="matrix(4.37114e-08 1 1 -4.37114e-08 915.441 98.1963)" fill="#F4C4BA"/>
<path d="M1002.89 150.747C1009.52 150.747 1013.18 174.7 1014.89 138.77C1014.89 132.155 1009.52 126.793 1002.89 126.793C996.261 126.793 990.887 132.155 990.887 138.77C990.887 145.384 996.261 150.747 1002.89 150.747Z" fill="#F4C4BA"/>
<ellipse cx="11.1214" cy="12.0039" rx="11.1214" ry="12.0039" transform="matrix(4.37114e-08 1 1 -4.37114e-08 939.447 41)" fill="#F4C4BA"/>
<ellipse cx="9.5326" cy="10.2891" rx="9.5326" ry="10.2891" transform="matrix(4.37114e-08 1 1 -4.37114e-08 970.308 72.7754)" fill="#F4C4BA"/>
<ellipse cx="9.5326" cy="10.2891" rx="9.5326" ry="10.2891" transform="matrix(4.37114e-08 1 1 -4.37114e-08 956.596 101.373)" fill="#F4C4BA"/>
<ellipse cx="95.326" cy="157.891" rx="95.326" ry="157.891" transform="matrix(4.37114e-08 1 1 -4.37114e-08 615.992 166.568)" fill="#F4C4BA"/>
<path d="M694.934 207.877C726.908 207.877 752.828 192.228 752.828 172.925C752.828 153.621 726.908 137.972 694.934 137.972C662.961 137.972 637.041 153.621 637.041 172.925C621.256 279.372 662.961 207.877 694.934 207.877Z" fill="#F4C4BA"/>
<path d="M798.385 217.411C830.358 217.411 856.278 201.762 856.278 182.458C856.278 163.154 830.358 147.505 798.385 147.505C766.411 147.505 740.491 163.154 740.491 182.458C724.706 288.905 766.411 217.411 798.385 217.411Z" fill="#F4C4BA"/>
<ellipse cx="11.1214" cy="18.4206" rx="11.1214" ry="18.4206" transform="matrix(4.37114e-08 1 1 -4.37114e-08 694.944 106.196)" fill="#F4C4BA"/>
<path d="M829.139 158.747C839.312 158.747 844.928 182.7 847.559 146.77C847.559 140.155 839.312 134.793 829.139 134.793C818.965 134.793 810.718 140.155 810.718 146.77C810.718 153.384 818.965 158.747 829.139 158.747Z" fill="#F4C4BA"/>
<ellipse cx="11.1214" cy="18.4206" rx="11.1214" ry="18.4206" transform="matrix(4.37114e-08 1 1 -4.37114e-08 731.779 49)" fill="#F4C4BA"/>
<ellipse cx="9.5326" cy="15.7891" rx="9.5326" ry="15.7891" transform="matrix(4.37114e-08 1 1 -4.37114e-08 779.14 80.7754)" fill="#F4C4BA"/>
<ellipse cx="9.5326" cy="15.7891" rx="9.5326" ry="15.7891" transform="matrix(4.37114e-08 1 1 -4.37114e-08 758.094 109.373)" fill="#F4C4BA"/>
<ellipse cx="534.883" cy="298.894" rx="95.326" ry="157.891" transform="rotate(90 534.883 298.894)" fill="#F4C4BA"/>
<path d="M613.831 244.877C581.858 244.877 555.938 229.228 555.938 209.925C555.938 190.621 581.858 174.972 613.831 174.972C645.805 174.972 671.724 190.621 671.724 209.925C687.51 316.372 645.805 244.877 613.831 244.877Z" fill="#F4C4BA"/>
<path d="M510.381 254.411C478.407 254.411 452.488 238.762 452.488 219.458C452.488 200.154 478.407 184.505 510.381 184.505C542.355 184.505 568.274 200.154 568.274 219.458C584.059 325.905 542.355 254.411 510.381 254.411Z" fill="#F4C4BA"/>
<ellipse cx="595.401" cy="154.318" rx="11.1214" ry="18.4206" transform="rotate(90 595.401 154.318)" fill="#F4C4BA"/>
<path d="M479.627 195.747C469.454 195.747 463.838 219.7 461.206 183.77C461.206 177.155 469.454 171.793 479.627 171.793C489.8 171.793 498.048 177.155 498.048 183.77C498.048 190.384 489.8 195.747 479.627 195.747Z" fill="#F4C4BA"/>
<ellipse cx="558.566" cy="97.1214" rx="11.1214" ry="18.4206" transform="rotate(90 558.566 97.1214)" fill="#F4C4BA"/>
<ellipse cx="513.837" cy="127.308" rx="9.5326" ry="15.7891" transform="rotate(90 513.837 127.308)" fill="#F4C4BA"/>
<ellipse cx="534.883" cy="155.906" rx="9.5326" ry="15.7891" transform="rotate(90 534.883 155.906)" fill="#F4C4BA"/>
<ellipse cx="313.883" cy="268.894" rx="95.326" ry="157.891" transform="rotate(90 313.883 268.894)" fill="#F4C4BA"/>
<path d="M392.831 214.877C360.858 214.877 334.938 199.228 334.938 179.925C334.938 160.621 360.858 144.972 392.831 144.972C424.805 144.972 450.724 160.621 450.724 179.925C466.51 286.372 424.805 214.877 392.831 214.877Z" fill="#F4C4BA"/>
<path d="M289.381 224.411C257.407 224.411 231.488 208.762 231.488 189.458C231.488 170.154 257.407 154.505 289.381 154.505C321.355 154.505 347.274 170.154 347.274 189.458C363.059 295.905 321.355 224.411 289.381 224.411Z" fill="#F4C4BA"/>
<ellipse cx="374.401" cy="124.318" rx="11.1214" ry="18.4206" transform="rotate(90 374.401 124.318)" fill="#F4C4BA"/>
<path d="M258.627 165.747C248.454 165.747 242.838 189.7 240.206 153.77C240.206 147.155 248.454 141.793 258.627 141.793C268.8 141.793 277.048 147.155 277.048 153.77C277.048 160.384 268.8 165.747 258.627 165.747Z" fill="#F4C4BA"/>
<ellipse cx="337.566" cy="67.1214" rx="11.1214" ry="18.4206" transform="rotate(90 337.566 67.1214)" fill="#F4C4BA"/>
<ellipse cx="292.837" cy="97.308" rx="9.5326" ry="15.7891" transform="rotate(90 292.837 97.308)" fill="#F4C4BA"/>
<ellipse cx="313.883" cy="125.906" rx="9.5326" ry="15.7891" transform="rotate(90 313.883 125.906)" fill="#F4C4BA"/>
<path fill-rule="evenodd" clip-rule="evenodd" d="M1269.25 544.855C1305.35 393.454 1367.52 206.799 1533.31 198.903C1688.32 191.52 1790.48 356.726 1926.73 440.602C2051.02 517.113 2334.76 623.519 2378.66 755.432C2422.53 887.291 2267.53 977.799 2206.68 1094.71C2142.42 1218.16 2088.22 1272.12 1977.78 1372.33C1854.15 1503.46 1568.49 1306.35 1495.52 1204.25C1392.88 1113.75 1254.63 1038.6 1204.61 916.572C1147.2 776.521 1235.96 684.484 1269.25 544.855Z" fill="#FEF9E8"/>
<path fill-rule="evenodd" clip-rule="evenodd" d="M774.168 524.722C843.935 583.1 904.416 623.187 840.964 718.187C781.634 807.016 692.325 733.153 589.716 788.474C496.116 838.937 470.087 888.294 378.46 879.701C286.87 871.111 299.777 761.357 259.402 697.776C216.77 630.64 110.892 591.403 138.928 502.491C167.905 410.592 281.571 327.874 388.744 287.58C481.292 252.785 546.949 313.105 635.562 315.771C737.266 318.831 709.825 470.884 774.168 524.722Z" fill="#F1E1A6" fill-opacity="0.8"/>
<path fill-rule="evenodd" clip-rule="evenodd" d="M136.916 380.204C154.753 301.431 236.714 241.172 325.222 238.633C407.981 236.26 464.147 323.571 537.754 368.708C604.899 409.882 706.689 418.353 731.406 487.709C756.113 557.036 674.158 602.849 642.762 663.361C609.611 727.256 617.446 822.078 545.146 846.711C470.416 872.171 373.717 832.908 309.203 777.004C253.493 728.729 274.085 651.901 246.189 587.655C214.173 513.917 120.465 452.852 136.916 380.204Z" fill="#C3E5AE"/>
<path d="M291.5 1200C288.268 1154.75 269.337 1132.56 502.064 1171.34C688.246 1202.37 550.546 983.869 544.083 932.152C534.385 838.414 651.397 702.01 783.276 686.495C915.155 670.98 928.73 527.034 919.034 457C910.853 420.333 912.092 341.799 982.492 320.999C1070.49 294.999 1033.49 427.499 1094.99 413.499C1144.19 402.299 1211.99 479.501 1226.38 361.999C1351.99 311.501 1300.63 487.721 1335.56 497.566C1379.23 509.872 1586.72 521.47 1471.31 727.252C1378.98 891.877 1510.97 1039.03 1561.82 1050.48C1653.29 1073.15 1920.63 1074.67 1890.5 1204" stroke="#96D9AD" stroke-width="6.46465"/>
<circle cx="571.689" cy="953.697" r="9.69697" fill="#96D9AD"/>
<circle cx="514.922" cy="961.929" r="12.9293" fill="#96D9AD"/>
<circle cx="554.457" cy="1021.46" r="6.46465" fill="#96D9AD"/>
<circle cx="541.457" cy="981.465" r="6.46465" fill="#96D9AD"/>
<circle cx="527.689" cy="1001.7" r="9.69697" fill="#96D9AD"/>
<path d="M600.921 963.465C600.921 967.035 598.027 969.929 594.457 969.929C590.887 969.929 587.992 967.035 587.992 963.465C587.992 959.894 590.887 957 594.457 957C598.027 957 600.921 959.894 600.921 963.465Z" fill="#96D9AD"/>
<path d="M587.921 985.465C587.921 989.035 585.027 991.929 581.457 991.929C577.887 991.929 574.992 989.035 574.992 985.465C574.992 981.894 577.887 979 581.457 979C585.027 979 587.921 981.894 587.921 985.465Z" fill="#96D9AD"/>
<circle cx="1465.46" cy="601.465" r="6.46465" fill="#96D9AD"/>
<circle cx="1492.46" cy="548.465" r="6.46465" fill="#96D9AD"/>
<circle cx="1466.46" cy="562.465" r="6.46465" fill="#96D9AD"/>
<circle cx="1448.46" cy="578.465" r="6.46465" fill="#96D9AD"/>
<circle cx="1491.92" cy="519.929" r="12.9293" fill="#96D9AD"/>
<circle cx="1431.09" cy="539.096" r="12.9293" transform="rotate(-24.2279 1431.09 539.096)" fill="#96D9AD"/>
<circle cx="1511.69" cy="559.697" r="9.69697" fill="#96D9AD"/>
</svg>
