<svg width="587" height="831" viewBox="0 0 587 831" fill="none" xmlns="http://www.w3.org/2000/svg">
<g clip-path="url(#clip0_1_1106)">
<rect width="587.004" height="830.685" fill="white"/>
<g filter="url(#filter0_f_1_1106)">
<circle cx="40.9417" cy="690.1" r="15.2917" fill="#F3F5C8"/>
<circle cx="120.361" cy="670.862" r="27.6237" fill="#E7E9C5"/>
<circle cx="162.29" cy="815.393" r="88.2973" fill="#BABC95"/>
<circle cx="582.072" cy="27.6233" r="21.7044" fill="#F3F5C8"/>
<circle cx="45.8756" cy="46.861" r="19.238" fill="#F3F5C8"/>
<circle cx="87.3086" cy="165.248" r="40.9423" fill="#E7E9C5"/>
<circle cx="187.939" cy="46.8613" r="55.7407" fill="#BABC95"/>
<circle cx="567.273" cy="846.469" r="52.2878" fill="#E7E9C5"/>
<circle cx="70.044" cy="534.716" r="10.8522" fill="#F3F5C8"/>
<circle cx="200.271" cy="361.081" r="10.8522" fill="#F3F5C8"/>
<circle cx="422.247" cy="478.482" r="74.9787" fill="#BABC95"/>
</g>
<g filter="url(#filter1_f_1_1106)">
<path d="M173.916 181.602C173.916 183.82 171.23 183.701 170.832 185.493C170.453 187.202 169.354 189.476 168.325 190.94C166.776 193.145 165.98 195.534 164.29 197.684C163.23 199.033 161.342 200.477 160.543 201.835C159.465 203.668 157.694 205.397 156.249 207.022C154.884 208.558 154.446 210.408 153.28 211.807C151.19 214.315 150.72 218.272 149.015 221.001C148.457 221.892 147.622 223.681 147.458 224.661C147.084 226.904 143.723 229.82 142.27 231.434C140.06 233.89 136.933 236.807 135.526 239.821C133.714 243.704 130.599 247.262 128.494 251.09C126.711 254.331 124.211 257.057 122.557 260.457C119.584 266.568 119.59 272.655 119.444 279.249C119.303 285.569 117.656 291.632 115.294 297.406C113.968 300.646 112.335 303.805 110.625 306.86C108.848 310.032 106.487 313.956 105.552 317.408C103.405 325.337 98.7001 332.838 95.5798 340.465C94.3763 343.407 93.7278 346.529 92.4671 349.429C91.2753 352.17 89.9213 356.678 89.8732 359.66C89.7973 364.366 89.8732 369.076 89.8732 373.783C89.8732 376.174 90.8576 378.378 90.9108 380.93C90.9915 384.807 91.8766 388.489 92.7265 392.228C93.3851 395.126 93.249 398.164 93.9082 401.048C94.9642 405.668 92.8903 410.596 91.4296 414.824C89.0279 421.777 88.3633 428.613 92.4671 434.769" stroke="#EF9376" stroke-width="3.45297" stroke-linecap="round"/>
<path d="M92.4662 437.363C92.4662 441.263 93.5038 445.092 93.5038 449.035C93.5038 452.417 93.5038 455.799 93.5038 459.181C93.5038 460.641 93.5038 462.101 93.5038 463.561C93.5038 465.302 95.9021 467.951 96.6165 469.643C98.8729 474.987 101.541 479.713 103.245 485.206C104.998 490.853 105.579 497.094 105.983 502.96C106.383 508.76 108.448 514.29 109.845 519.878C110.577 522.803 111.089 525.961 112.18 528.784C113.346 531.802 114.485 535.949 116.359 538.526C119.864 543.345 123.553 547.936 126.447 553.08C130.493 560.273 132.524 569.371 134.372 577.319C135.582 582.518 138.759 584.175 141.751 588.214C144.025 591.284 146.604 594.243 148.38 597.667C149.683 600.181 151.295 601.526 152.933 603.633C154.223 605.291 156.522 605.749 157.948 607.12C160.047 609.139 162.218 610.494 163.741 613.202C164.391 614.357 165.411 615.351 165.644 616.632C165.839 617.709 166.226 618.809 166.537 619.86C166.778 620.672 167.568 621.316 167.69 622.05C167.935 623.518 168.789 624.857 169.246 626.229C169.827 627.971 171.655 628.475 172.244 629.947C173.005 631.851 175.196 634.12 176.509 635.798C178.383 638.192 178.575 639.486 181.294 640.323C183.427 640.979 185.69 640.998 187.894 641.274C189.711 641.501 191.225 642.283 193.11 642.283" stroke="#EF9376" stroke-width="3.94625" stroke-linecap="round"/>
<path d="M596.307 121.047C593.806 121.047 591.305 121.047 588.804 121.047C587.09 121.047 584.46 118.182 582.978 117.252C580.838 115.908 578.397 113.977 576.49 112.308C573.899 110.041 570.858 110.878 567.619 110.675C563.322 110.407 555.65 111.102 553.23 106.747C551.636 103.878 547.358 100.135 544.668 98.4055C535.566 92.5543 524.475 90.0638 513.861 90.0638C509.697 90.0638 505.534 90.0638 501.37 90.0638C497.5 90.0638 494.77 88.0208 491.44 86.2681C476.936 78.6344 460.256 74.9693 443.773 74.9693C434.907 74.9693 425.784 75.3416 417.203 72.939C412.507 71.6243 408.141 71.7914 403.256 71.7914C396.121 71.7914 388.831 71.2377 381.85 72.9831C377.997 73.9464 375.016 77.0211 371.434 78.5884C367.177 80.4505 363.53 82.1193 358.767 82.1193C345.179 82.1193 332.163 81.7888 318.867 84.6792C308.105 87.0189 303.714 94.9992 295.652 101.142C292.125 103.829 289.064 103.498 285.059 104.982C282.753 105.836 281.184 107.596 278.571 108.38C275.849 109.197 272.862 110.682 270.538 112.308C260.989 118.993 244.162 118.119 236.598 127.844C230.414 135.794 220.169 144.771 211.617 149.824C207.335 152.354 203.802 154.445 199.126 156.003C197.899 156.412 196.392 158.043 195.11 158.74C192.707 160.044 190.409 162.348 188.136 163.948C185.275 165.961 181.7 170.749 179.618 173.525C178.188 175.431 176.058 178.217 175.249 179.837" stroke="#EF9376" stroke-width="2.95969" stroke-linecap="round"/>
<path d="M491.774 733.21C493.187 733.21 494.621 733.277 496.029 733.161C497.518 733.038 498.926 732.386 500.406 732.329C501.343 732.293 502.098 731.631 502.999 731.4C504.329 731.058 505.731 730.242 506.96 729.639C509.832 728.229 512.889 727.59 515.984 726.827C518.02 726.325 519.828 725.946 521.927 725.946C525.73 725.946 529.044 726.185 532.1 723.525C536.26 719.906 541.527 717.51 546.308 714.819C549.007 713.3 551.968 712.34 554.745 710.98C556.411 710.164 558.09 709.308 559.832 708.657C563.748 707.193 567.678 706.616 571.839 706.187C574.659 705.896 577.394 705.102 579.982 703.937C581.83 703.106 582.663 701.839 583.822 700.293C584.626 699.222 585.814 698.001 586.854 697.163C587.764 696.43 590.003 695.371 590.376 694.253" stroke="#EF9376" stroke-width="4.93281" stroke-linecap="round"/>
<path d="M193.23 641.922C194.227 642.033 194.833 642.881 195.565 643.451C196.682 644.32 198.132 645.088 199.343 645.828C201.253 646.995 201.717 650.249 203.164 651.856C204.767 653.637 205.383 656.258 206.603 658.267C208.611 661.575 210.624 664.791 212.482 668.222C215.834 674.41 222.417 675.96 227.829 679.663C230.773 681.678 234.399 683.393 237.551 685.097C239.782 686.303 242.056 687.498 244.428 688.345C249.206 690.051 252.095 695.009 256.655 697.409C259.21 698.753 261.019 701.374 263.617 702.673C266.474 704.101 268.648 706.145 271.938 706.876C274.533 707.452 276.894 708.404 279.58 708.404C282.16 708.404 284.631 708.786 287.221 708.786C294.058 708.786 299.397 714.035 305.561 716.237C309.455 717.627 311.762 721.06 314.922 723.517C315.868 724.253 316.864 725.567 318 725.98C318.951 726.326 319.466 727.469 320.547 727.508C322.403 727.574 324.166 727.874 326.023 727.89C328.672 727.913 331.284 728.078 333.877 728.654C334.871 728.875 335.808 729.613 336.722 729.779C338.165 730.042 340.097 730.341 341.391 731.032C346.21 733.602 352.143 733.229 357.269 734.937C361.499 736.347 365.752 735.735 369.962 737.251C373.689 738.592 378.675 738.23 382.613 738.673C391.891 739.717 400.886 740.499 410.25 740.499C412.005 740.499 413.676 740.715 415.217 739.734C417.322 738.395 419.601 737.208 422.137 737.081C426.21 736.878 430.261 737.084 434.3 737.421C439.576 737.86 444.877 738.443 450.156 739.055C454.534 739.563 459.072 740.499 463.444 740.499C467.51 740.499 470.569 738.808 474.079 737.272C479.748 734.792 485.112 733.621 491.251 733.621" stroke="#EF9376" stroke-width="4.43953" stroke-linecap="round"/>
<path d="M316.852 134.396C316.852 138.306 310.217 137.812 308.1 139.16C306.587 140.122 303.882 141.197 302.172 141.819C300.572 142.401 299.422 143.459 297.906 144.256C295.016 145.778 290.153 147.562 288.433 150.572C285.758 155.253 279.419 155.576 275.248 158.078C272.521 159.715 269.322 160.035 266.745 162.039C265.995 162.623 264.898 162.451 264.39 163.313C263.837 164.254 262.777 165.038 262.008 165.806C259.969 167.845 258.327 169.704 256.025 171.512C254.424 172.77 252.181 173.923 251.15 175.778C248.782 180.041 245.306 183.644 240.569 185.223C235.282 186.986 230.31 188.53 226.359 192.481C221.247 197.593 214.563 201.332 211.152 207.964C207.533 215.003 207.662 221.851 207.662 229.625C207.662 234.122 207.662 238.618 207.662 243.115C207.662 246.802 205.78 249.345 204.172 252.56C202.251 256.402 199.156 258.574 196.223 261.507C193.772 263.958 192.292 266.559 190.433 269.401C186.972 274.695 183.088 280.597 177.969 284.497C174.15 287.407 172.456 293.365 170.656 297.544C168.783 301.893 166.65 306.166 164.535 310.396C159.703 320.059 158.302 329.521 158.302 340.311C158.302 343.448 159.125 345.98 160.546 348.538C161.142 349.611 162.029 352.894 162.79 353.274" stroke="#E07958" stroke-width="5.42609" stroke-linecap="round"/>
<path d="M162.447 353.982C162.447 357.339 163.451 360.944 162.83 364.356C162.392 366.766 161.066 368.244 160.214 370.422C159.401 372.5 157.396 374.519 157.147 376.759C156.396 383.518 156.423 390.075 154.328 396.604C152.178 403.308 153.415 411.077 150.675 417.622C149.83 419.642 148.24 421.553 148.24 423.801C148.24 425.966 148.24 428.131 148.24 430.296C148.24 432.155 148.943 434.548 149.863 436.159C150.113 436.597 150.819 436.646 150.991 436.971C151.361 437.67 151.081 439.09 151.081 439.858C151.081 441.532 150.753 443.593 151.487 445.135C153.063 448.445 154.346 452.657 155.14 456.23C156.213 461.057 161.683 463.05 164.296 466.852C166.596 470.197 170.159 474.773 170.159 479.007C170.159 483.762 171.924 488.448 172.189 493.214C172.506 498.919 173.439 504.75 173.835 510.488C174.102 514.351 175.841 518.534 176.857 522.26C178.418 527.982 179.106 534.458 181.503 539.85C182.921 543.04 183.936 545.96 186.396 548.419C187.934 549.958 189.278 551.617 190.861 553.11C193.862 555.939 197.324 558.267 200.107 561.409C202.217 563.791 205.36 565.468 206.692 568.4C209.003 573.483 212.914 577.942 215.848 582.652C216.838 584.241 218.482 585.594 219.953 586.757C222.837 589.038 225.044 591.574 227.079 594.695C228.365 596.667 230.315 598.031 231.634 599.949C232.362 601.008 232.275 601.397 233.483 602.001" stroke="#E07958" stroke-width="5.91937" stroke-linecap="round"/>
<path d="M230.121 600.629C230.343 602.628 232.961 605.085 233.623 607.336C233.892 608.253 235.793 612.951 236.529 613.371C239.434 615.031 240.207 619.251 243.011 621.12C244.697 622.244 248.217 623.523 250.239 624.101C256.425 625.868 263.073 631.058 268.42 634.495C272.46 637.093 276.244 640.287 279.075 644.219C281.378 647.418 285.631 648.964 289.172 650.292C293.107 651.768 296.73 652.969 300.907 653.757C304.249 654.387 309.063 654.779 311.935 656.625C314.215 658.091 316.422 659.493 318.79 660.984C321.252 662.534 325.007 663.326 327.024 665.343C330.057 668.377 334.673 667.95 338.238 669.851C342.292 672.014 347.12 673.174 351.464 674.695C360.322 677.795 369.157 682.957 378.661 684.419C382.85 685.063 386.866 685.126 391.105 685.126C393.522 685.126 395.959 684.751 398.071 686.095C399.368 686.92 400.833 687.083 402.319 687.138C408.792 687.378 415.337 687.809 421.915 687.809C432.317 687.809 442.985 687.186 453.36 687.958C466.881 688.964 480.077 690.869 493.671 690.491C501.899 690.263 505.738 683.494 512.597 680.954C516.966 679.336 520.435 677.385 525.264 677.116C528.709 676.925 532.18 677.279 535.621 677.042C539.179 676.797 542.523 675.738 546.128 675.738C551.19 675.738 556.207 676.151 561.03 674.397C564.525 673.126 567.748 670.501 571.313 669.181C577.551 666.871 581.539 661.196 586.886 657.631" stroke="#E07958" stroke-width="6.41265" stroke-linecap="round"/>
<path d="M585.447 165.307C585.233 163.38 581.059 162.453 579.716 161.623C578.348 160.777 576.076 158.948 574.395 158.86C572.018 158.735 568.991 157.659 566.566 157.12C564.352 156.628 561.932 155.678 559.658 155.636C555.489 155.56 550.808 155.266 546.968 153.538C542.793 151.659 536.93 152.622 532.462 152.387C528.567 152.182 524.691 151.677 520.796 151.466C518.09 151.32 516.264 150.245 513.786 149.419C509.25 147.907 506.176 144.11 501.531 143.1C494.734 141.622 487.847 139.893 481.012 138.7C476.898 137.981 473.265 137.676 469.039 137.676C462.92 137.676 456.321 136.933 450.286 137.906C441.553 139.315 432.722 139.604 424.036 141.565C419.034 142.694 412.147 142.163 407.176 141.335C400.502 140.222 394.764 136.414 388.526 134.222C379.876 131.183 371.291 129.431 362.097 130.666C358.874 131.099 355.794 132.306 352.58 132.713C349.484 133.105 346.433 133.071 343.318 133.071C338.561 133.071 334.151 132.992 329.605 134.427C324.822 135.937 318.915 134.169 314.664 136.295" stroke="#E07958" stroke-width="4.93281" stroke-linecap="round"/>
<path d="M586.145 215.314C586.026 214.363 578.261 212.207 577.238 211.622C574.646 210.141 571.914 209.035 569.151 207.93C566.58 206.902 563.287 207.403 560.595 207.403C556.561 207.403 552.528 207.403 548.494 207.403C540.77 207.403 533.056 205.218 525.376 204.356C516.409 203.349 509.868 198.387 501.467 196.034C495.34 194.319 489.697 193.69 483.3 193.69C478.214 193.69 473.633 195.273 468.65 195.273C464.311 195.273 460.144 195.104 455.875 194.716C452.793 194.436 447.175 192.327 444.8 190.291C439.972 186.153 432.639 184.33 426.633 182.849C421.172 181.502 415.02 181.56 409.434 181.56C406.276 181.56 401.741 180.715 398.681 181.589C390.108 184.039 380.763 183.142 371.783 183.142C367.748 183.142 363.825 183.053 359.858 183.963C355.09 185.055 348.264 187.44 344.68 191.024C341.868 193.836 341.168 197.764 337.97 200.429C335.353 202.61 331.248 203.842 327.949 204.502C325.346 205.023 319.696 205.592 317.694 207.403C314.931 209.903 313.438 213.246 311.365 216.252C310.341 217.737 309.516 218.769 309.285 220.617C309.066 222.369 308.611 223.453 306.882 224.251C303.793 225.676 297.641 227.469 296.071 230.609" stroke="#DD6F4C" stroke-width="6.90593" stroke-linecap="round"/>
<path d="M560.831 606.651C564.821 606.651 572.495 608.083 575.598 605.069C577.69 603.037 579.621 602.637 582.044 601.26C584.04 600.126 588.799 599.236 589.838 597.158" stroke="#DD6F4C" stroke-width="8.38578" stroke-linecap="round"/>
<path d="M295.017 232.719C292.611 236.997 287.508 241.192 283.707 244.322C278.095 248.944 273.9 256.035 269.409 261.785C260.265 273.489 250.452 284.976 248.342 300.168C247.233 308.154 248.078 316.784 248.078 324.839C248.078 330.724 247.735 336.7 248.605 342.537C249.229 346.721 250.358 350.702 251.272 354.814C252.785 361.621 254.91 368.004 253.762 375.236C253.387 377.601 252.276 381.243 250.95 383.294C248.49 387.094 248.136 390.822 247.316 395.16C245.597 404.261 245.347 413.399 243.331 422.468C241.035 432.802 235.556 442.147 233.838 452.648C232.085 463.364 235.33 473.329 241.632 482.066C246.431 488.718 249.28 494.96 250.305 503.162C251.326 511.332 251.172 525.43 262.318 525.43" stroke="#DD6F4C" stroke-width="7.39921" stroke-linecap="round"/>
<path d="M263.375 525.958C268.251 525.958 271.721 531.179 274.187 534.631C276.498 537.867 278.352 541.508 280.486 544.827C281.921 547.059 282.598 548.457 284.999 549.691C287.506 550.981 290.215 552.083 292.587 553.618C297.587 556.853 300.169 562.162 303.458 567.096C307.888 573.741 317.06 579.232 324.232 582.361C326.465 583.336 328.516 584.59 330.854 585.291C331.63 585.524 333.591 585.764 334.077 586.493C336.672 590.386 339.447 592.39 343.892 593.994C349.79 596.122 354.899 596.103 361.004 596.103C367.822 596.103 374.885 593.919 381.661 595.371C391.343 597.446 400.823 599.673 409.936 603.194C415.739 605.436 422.53 606.333 428.747 606.651C430.682 606.751 432.048 608.713 433.728 609.552C435.247 610.312 438.215 612.453 439.822 612.453C444.316 612.453 448.751 613.458 453.242 613.508C456.405 613.543 459.571 613.508 462.735 613.508C465.308 613.508 464.845 612.055 464.845 609.816C464.845 606.296 464.827 605.069 468.8 605.069C473.281 605.069 477.769 604.988 482.249 605.069C485.279 605.124 488.153 606.124 491.215 606.124C498.081 606.124 504.947 606.124 511.813 606.124C520.438 606.124 529.047 606.495 537.627 606.651C542.034 606.732 546.383 607.179 550.812 607.179C552.836 607.179 556.977 607.953 558.196 606.124" stroke="#DD6F4C" stroke-width="7.89249" stroke-linecap="round"/>
<path d="M587.28 272.157C585.646 267.253 574.859 267.106 571.08 264.867C568.504 263.34 563.667 262.385 560.651 263.247C546.753 267.218 533.712 261.544 521.265 256.21C512.374 252.399 502.142 251.346 492.611 250.287C486.489 249.606 482.557 250.626 476.562 251.147C467.41 251.943 461.671 249.725 453.427 246.236C445.391 242.837 436.128 241.832 427.81 239.351C421.21 237.383 415.271 236.618 408.471 236.618C401.526 236.618 395.749 239.345 389.537 242.288C387.19 243.4 386.804 245.991 386.804 248.464C386.804 252.318 383.38 255.272 380.374 257.526C372.028 263.785 359.408 264.921 350.303 269.929C343.114 273.883 337.596 283.135 337.596 291.293" stroke="#E16740" stroke-width="8.38578" stroke-linecap="round"/>
<path d="M336.685 293.116C336.685 295.71 336.845 298.926 334.761 300.861C332.048 303.38 329.395 303.777 329.395 307.696C329.395 312.556 329.395 317.416 329.395 322.276C329.395 330.671 328.539 336.372 325.041 344.146C321.678 351.618 319.371 358.214 319.371 366.523C319.371 378.926 318.459 390.948 318.459 403.378C318.459 411.798 313.124 415.318 310.461 422.717C308.544 428.042 307.524 432.153 307.524 438.006C307.524 441.701 307.524 445.397 307.524 449.093C307.524 454.789 309.045 459.908 309.347 465.343C309.583 469.595 316.644 473.391 319.371 476.278C324.069 481.253 322.488 488.739 324.636 494.706C325.686 497.623 330.233 502.995 333.04 504.325C334.564 505.047 338.517 504.834 339.469 505.945C341.083 507.828 344.518 508.249 346.708 509.286C351.916 511.753 353.716 517.66 358.555 520.221C367.33 524.867 378.376 521.69 386.804 527.309" stroke="#E16740" stroke-width="8.87906" stroke-linecap="round"/>
<path d="M390.448 530.043C394.551 530.555 395.391 538.436 398.245 540.066C401.446 541.896 406.516 542.099 410.091 542.749C418.635 544.303 426.011 544.673 434.189 543.711C441.697 542.828 451.069 539.963 458.793 542.446C469.022 545.734 478.301 550.925 489.218 552.824C502.018 555.05 513.944 552.589 526.226 548.976C529.994 547.868 534.585 544.783 537.566 542.344C540.754 539.736 544.301 539.085 547.691 536.928C550.794 534.952 555.164 535.011 558.525 533.283C562.429 531.274 566.168 529.117 569.966 527.106C571.41 526.342 572.618 525.374 574.016 524.575C575.585 523.678 575.613 521.002 577.458 520.221C580.012 519.141 583.158 516.995 585.457 515.462" stroke="#E16740" stroke-width="9.37234" stroke-linecap="round"/>
<path d="M557.874 471.501C565.176 471.501 573.24 473.523 578.009 467.561C579.684 465.468 582.293 464.078 584.624 462.746C586.483 461.684 592.035 458.332 592.892 456.618" stroke="#E05D32" stroke-width="10.8522" stroke-linecap="round"/>
<path d="M585.889 327.053C585.451 323.113 577.461 320.043 574.557 318.737C571.643 317.426 568.933 316.018 565.948 314.797C560.473 312.557 555.253 312.973 549.315 313.046C545.122 313.098 540.957 314.643 536.816 313.435C532.476 312.17 529.38 308.969 525.095 307.745C523.276 307.225 521.066 304.586 518.821 303.903C514.519 302.594 509.52 302.108 505.397 300.304C495.387 295.925 482.84 298.298 472.957 293.592C466.689 290.607 462.019 284.147 454.671 283.33C448.521 282.647 440.124 282.279 434.438 284.838C428.822 287.365 426.36 293.223 420.237 295.343C411.553 298.349 402.418 303.328 401.172 313.922C400.65 318.353 399.421 322.68 399.421 327.442C399.421 330.858 401.146 340.405 398.934 343.249C395.324 347.891 391.457 351.865 387.165 355.943C382.907 359.987 376.297 364.155 374.471 369.998C371.806 378.526 374.033 391.601 374.033 400.59" stroke="#E05D32" stroke-width="9.86562" stroke-linecap="round"/>
<path d="M374.906 403.216C374.906 407.155 374.119 411.862 376.657 415.034C378.768 417.673 381.261 420.075 383.661 422.475C385.779 424.594 386.179 427.359 387.6 429.917C390.216 434.625 389.789 440.229 389.789 445.431C389.789 451.977 392.358 454.568 395.917 459.438C399.326 464.104 404.861 469.117 409.875 471.938C414.478 474.527 419.508 479.379 424.855 479.379C430.996 479.379 436.865 480.254 442.996 480.254C448.028 480.254 451.463 479.048 456.128 477.434C461.129 475.702 468.784 476.186 473.831 477.628C479.196 479.161 484.037 483.256 489.54 484.632C492.77 485.439 497.666 489.342 500.289 491.441C503.719 494.185 510.742 493.598 514.976 493.386C520.228 493.123 522.937 490.717 525.968 486.82C528.389 483.707 528.808 477.404 532.485 475.829C537.448 473.702 540.031 471.81 545.617 471.5C549.873 471.264 554.263 470.625 558.748 470.625" stroke="#E05D32" stroke-width="10.3589" stroke-linecap="round"/>
<path d="M585.009 361.196C584.842 362.528 576.475 356.625 574.941 355.943C571.266 354.309 568.054 352.011 563.998 350.885C560.189 349.827 556.844 347.283 553.007 346.362C547.575 345.058 541.965 345.438 536.422 345.438C535.175 345.438 533.913 346.137 532.872 346.799C530.581 348.257 528.298 348.064 525.674 348.064C521.019 348.064 516.581 346.994 512.348 345.049C508.543 343.301 503.271 339.769 499.167 339.358C491.455 338.587 483.778 337.559 476.017 337.559C469.514 337.559 457.862 335.274 452.331 338.434C450.477 339.494 448.623 342.967 448.441 345.243C448.169 348.644 444.095 351.579 441.243 352.636C437.887 353.879 435.3 357.046 432.294 358.958C429.319 360.851 430.056 364.554 430.056 367.713C430.056 373.183 430.932 378.645 430.932 383.957" stroke="#E55729" stroke-width="10.8522" stroke-linecap="round"/>
<path d="M430.935 387.458C430.935 390.75 430.969 393.688 430.109 396.699C428.707 401.606 431.893 405.172 433.562 409.344C434.804 412.449 438.151 416.077 441.003 417.661C444.375 419.534 448.078 417.514 451.508 419.801C456.578 423.181 458.263 427.035 462.013 431.619C464.744 434.957 472.148 434.732 475.972 434.732C486.387 434.732 493.559 434.493 502.332 429.48C505.746 427.529 506.51 425.102 510.795 425.102C515.172 425.102 519.549 425.102 523.926 425.102C532.084 425.102 548.871 429.833 555.734 423.351C558.303 420.925 562.36 417.693 563.807 414.403C565.271 411.077 566.385 407.537 569.449 405.454C573.197 402.905 579.105 402.651 582.386 399.715C586.086 396.405 586.763 394.28 586.763 389.209" stroke="#E55729" stroke-width="11.3455" stroke-linecap="round"/>
<path d="M489.829 368.914C486.689 368.914 483.606 368.531 480.464 368.531C479.186 368.531 475.232 367.853 474.504 369.127C473.352 371.144 470.005 371.827 469.503 374.086C469.162 375.621 468.375 377.019 468.375 378.683C468.375 380.197 469.524 381.463 469.524 383.132C469.524 384.644 468.906 388.126 469.737 389.432C470.257 390.25 470.381 391.277 470.886 392.071C471.448 392.954 473.782 393.292 474.739 393.433C477.159 393.792 479.772 394.062 482.018 394.561C484.156 395.037 485.883 395.854 487.999 396.583C490.634 397.492 493.5 397.366 496.257 397.264C498.069 397.197 499.043 393.785 499.79 392.582C500.578 391.312 502.004 389.21 502.089 387.687C502.307 383.753 503.413 379.876 500.939 376.491C499.597 374.655 496.832 373.859 495.107 372.447C494.068 371.597 492.53 370.648 491.361 370.063" stroke="#E44F1E" stroke-width="11.8387" stroke-linecap="round"/>
</g>
<path d="M423.727 713.284C498.213 680.234 540.699 487.936 551.487 362.561C564.56 210.631 500.186 102.109 376.372 110.002M376.372 110.002L393.144 90.7637M376.372 110.002L396.597 124.8" stroke="#4B2323" stroke-width="7.89249"/>
<path d="M57.9735 127.966V94.5016H64.035V108.708H83.1033V94.5016H89.1647V127.966H83.1033V113.949H64.035V127.966H57.9735ZM103.91 127.966V94.5016H109.972V118.874L130.492 94.5016H135.985V127.966H129.924V103.594L109.467 127.966H103.91ZM174.956 127.966L162.012 111.676L167 108.645L182.091 127.966H174.956ZM150.71 127.966V94.5016H156.772V127.966H150.71ZM154.941 113.822V108.645H165.99V113.822H154.941ZM167.506 111.928L161.886 111.171L174.704 94.5016H181.207L167.506 111.928ZM204.629 128.345C201.261 128.345 198.273 127.608 195.663 126.135C193.053 124.661 190.991 122.641 189.475 120.073C187.96 117.464 187.202 114.517 187.202 111.234C187.202 107.908 187.96 104.962 189.475 102.394C190.991 99.8264 193.053 97.827 195.663 96.3958C198.273 94.9226 201.261 94.1859 204.629 94.1859C207.954 94.1859 210.922 94.9226 213.532 96.3958C216.184 97.827 218.246 99.8264 219.719 102.394C221.235 104.92 221.992 107.866 221.992 111.234C221.992 114.559 221.235 117.506 219.719 120.073C218.246 122.641 216.184 124.661 213.532 126.135C210.922 127.608 207.954 128.345 204.629 128.345ZM204.629 123.041C206.776 123.041 208.691 122.557 210.375 121.589C212.1 120.621 213.447 119.253 214.416 117.485C215.384 115.675 215.868 113.591 215.868 111.234C215.868 108.834 215.384 106.772 214.416 105.046C213.447 103.278 212.1 101.91 210.375 100.942C208.691 99.9738 206.776 99.4897 204.629 99.4897C202.482 99.4897 200.567 99.9738 198.883 100.942C197.199 101.91 195.852 103.278 194.842 105.046C193.832 106.772 193.327 108.834 193.327 111.234C193.327 113.591 193.832 115.675 194.842 117.485C195.852 119.253 197.199 120.621 198.883 121.589C200.567 122.557 202.482 123.041 204.629 123.041ZM233.705 127.966V94.5016H258.329V99.8054H238.314L239.766 98.4163V127.966H233.705ZM288.193 125.125V99.8054H273.671L273.355 106.246C273.271 108.35 273.124 110.392 272.913 112.37C272.745 114.307 272.45 116.096 272.029 117.737C271.651 119.379 271.082 120.726 270.325 121.778C269.567 122.83 268.557 123.483 267.294 123.735L261.296 122.662C262.6 122.704 263.653 122.283 264.453 121.399C265.252 120.473 265.863 119.21 266.284 117.611C266.747 116.011 267.083 114.201 267.294 112.181C267.504 110.118 267.673 107.993 267.799 105.804L268.304 94.5016H294.255V125.125H288.193ZM259.97 135.732V122.662H299.369V135.732H293.686V127.966H265.715V135.732H259.97ZM330.746 127.966V120.894L330.43 119.568V107.508C330.43 104.941 329.672 102.962 328.157 101.573C326.684 100.142 324.453 99.4266 321.464 99.4266C319.486 99.4266 317.549 99.7633 315.655 100.437C313.761 101.068 312.161 101.931 310.856 103.026L308.331 98.4795C310.057 97.0904 312.119 96.038 314.519 95.3225C316.96 94.5648 319.507 94.1859 322.159 94.1859C326.747 94.1859 330.283 95.3014 332.766 97.5324C335.25 99.7633 336.491 103.173 336.491 107.761V127.966H330.746ZM319.759 128.345C317.276 128.345 315.087 127.924 313.193 127.082C311.341 126.24 309.909 125.082 308.899 123.609C307.889 122.094 307.384 120.389 307.384 118.495C307.384 116.685 307.805 115.043 308.647 113.57C309.531 112.097 310.941 110.918 312.877 110.034C314.855 109.15 317.507 108.708 320.833 108.708H331.44V113.065H321.085C318.054 113.065 316.013 113.57 314.961 114.58C313.908 115.59 313.382 116.811 313.382 118.242C313.382 119.884 314.035 121.21 315.339 122.22C316.644 123.188 318.454 123.672 320.769 123.672C323.042 123.672 325.021 123.167 326.705 122.157C328.43 121.147 329.672 119.673 330.43 117.737L331.63 121.904C330.83 123.883 329.42 125.461 327.399 126.64C325.379 127.776 322.832 128.345 319.759 128.345Z" fill="#4B2323"/>
<path d="M139.673 273.977V240.513H145.735V254.719H164.803V240.513H170.864V273.977H164.803V259.96H145.735V273.977H139.673ZM200.511 274.356C196.933 274.356 193.776 273.619 191.04 272.146C188.346 270.673 186.241 268.652 184.726 266.085C183.253 263.517 182.516 260.57 182.516 257.245C182.516 253.92 183.232 250.973 184.663 248.405C186.136 245.838 188.136 243.838 190.661 242.407C193.229 240.934 196.112 240.197 199.311 240.197C202.553 240.197 205.415 240.913 207.898 242.344C210.382 243.775 212.318 245.796 213.707 248.405C215.138 250.973 215.854 253.983 215.854 257.434C215.854 257.687 215.833 257.982 215.791 258.318C215.791 258.655 215.77 258.971 215.728 259.265H187.252V254.909H212.571L210.108 256.424C210.15 254.277 209.708 252.362 208.782 250.678C207.856 248.995 206.572 247.69 204.931 246.764C203.331 245.796 201.458 245.312 199.311 245.312C197.207 245.312 195.334 245.796 193.692 246.764C192.05 247.69 190.766 249.016 189.84 250.742C188.914 252.425 188.451 254.362 188.451 256.55V257.561C188.451 259.792 188.956 261.791 189.967 263.559C191.019 265.285 192.471 266.632 194.323 267.6C196.175 268.568 198.301 269.052 200.7 269.052C202.679 269.052 204.468 268.715 206.067 268.042C207.709 267.368 209.14 266.358 210.361 265.011L213.707 268.926C212.192 270.694 210.298 272.041 208.025 272.967C205.794 273.893 203.289 274.356 200.511 274.356ZM248.133 273.977V240.513H279.135V273.977H273.074V244.301L274.526 245.817H252.743L254.195 244.301V273.977H248.133ZM308.156 274.356C304.789 274.356 301.8 273.619 299.19 272.146C296.581 270.673 294.518 268.652 293.003 266.085C291.487 263.475 290.73 260.528 290.73 257.245C290.73 253.92 291.487 250.973 293.003 248.405C294.518 245.838 296.581 243.838 299.19 242.407C301.8 240.934 304.789 240.197 308.156 240.197C311.482 240.197 314.449 240.934 317.059 242.407C319.711 243.838 321.773 245.838 323.247 248.405C324.762 250.931 325.52 253.877 325.52 257.245C325.52 260.57 324.762 263.517 323.247 266.085C321.773 268.652 319.711 270.673 317.059 272.146C314.449 273.619 311.482 274.356 308.156 274.356ZM308.156 269.052C310.303 269.052 312.218 268.568 313.902 267.6C315.628 266.632 316.975 265.264 317.943 263.496C318.911 261.686 319.395 259.602 319.395 257.245C319.395 254.846 318.911 252.783 317.943 251.057C316.975 249.289 315.628 247.921 313.902 246.953C312.218 245.985 310.303 245.501 308.156 245.501C306.01 245.501 304.094 245.985 302.411 246.953C300.727 247.921 299.38 249.289 298.37 251.057C297.359 252.783 296.854 254.846 296.854 257.245C296.854 259.602 297.359 261.686 298.37 263.496C299.38 265.264 300.727 266.632 302.411 267.6C304.094 268.568 306.01 269.052 308.156 269.052ZM346.649 274.419C344.123 274.419 341.64 274.103 339.198 273.472C336.799 272.798 334.652 271.851 332.758 270.631L334.589 266.021C336.189 267.032 338.02 267.831 340.082 268.421C342.145 268.968 344.229 269.242 346.333 269.242C348.27 269.242 349.932 269.01 351.321 268.547C352.753 268.084 353.847 267.453 354.605 266.653C355.362 265.811 355.741 264.843 355.741 263.748C355.741 262.191 355.047 260.991 353.658 260.149C352.268 259.308 350.332 258.887 347.849 258.887H341.787V254.53H347.47C348.943 254.53 350.227 254.362 351.321 254.025C352.416 253.688 353.258 253.183 353.847 252.509C354.478 251.794 354.794 250.973 354.794 250.047C354.794 249.037 354.436 248.174 353.721 247.458C353.005 246.743 351.995 246.195 350.69 245.817C349.427 245.438 347.933 245.248 346.207 245.248C344.523 245.29 342.797 245.522 341.03 245.943C339.304 246.364 337.536 247.016 335.726 247.9L334.084 243.165C336.105 242.197 338.083 241.46 340.019 240.955C341.998 240.408 343.955 240.113 345.891 240.071C348.796 239.987 351.384 240.323 353.658 241.081C355.931 241.797 357.72 242.849 359.024 244.238C360.371 245.627 361.045 247.269 361.045 249.163C361.045 250.763 360.54 252.194 359.53 253.457C358.519 254.677 357.172 255.645 355.489 256.361C353.805 257.077 351.869 257.434 349.68 257.434L349.932 255.982C353.679 255.982 356.625 256.719 358.772 258.192C360.919 259.665 361.992 261.665 361.992 264.19C361.992 266.211 361.318 268 359.972 269.557C358.625 271.073 356.793 272.272 354.478 273.156C352.205 273.998 349.596 274.419 346.649 274.419ZM397.023 271.136V245.817H382.501L382.185 252.257C382.101 254.362 381.954 256.403 381.743 258.381C381.575 260.318 381.28 262.107 380.859 263.748C380.481 265.39 379.912 266.737 379.155 267.789C378.397 268.842 377.387 269.494 376.124 269.747L370.126 268.673C371.431 268.715 372.483 268.294 373.283 267.41C374.082 266.484 374.693 265.222 375.114 263.622C375.577 262.023 375.914 260.213 376.124 258.192C376.334 256.129 376.503 254.004 376.629 251.815L377.134 240.513H403.085V271.136H397.023ZM368.8 281.743V268.673H408.199V281.743H402.516V273.977H374.545V281.743H368.8ZM419.055 273.977V240.513H425.117V254.719H444.185V240.513H450.246V273.977H444.185V259.96H425.117V273.977H419.055ZM479.325 274.356C475.957 274.356 472.969 273.619 470.359 272.146C467.749 270.673 465.687 268.652 464.171 266.085C462.656 263.475 461.898 260.528 461.898 257.245C461.898 253.92 462.656 250.973 464.171 248.405C465.687 245.838 467.749 243.838 470.359 242.407C472.969 240.934 475.957 240.197 479.325 240.197C482.65 240.197 485.618 240.934 488.227 242.407C490.879 243.838 492.942 245.838 494.415 248.405C495.931 250.931 496.688 253.877 496.688 257.245C496.688 260.57 495.931 263.517 494.415 266.085C492.942 268.652 490.879 270.673 488.227 272.146C485.618 273.619 482.65 274.356 479.325 274.356ZM479.325 269.052C481.472 269.052 483.387 268.568 485.07 267.6C486.796 266.632 488.143 265.264 489.111 263.496C490.08 261.686 490.564 259.602 490.564 257.245C490.564 254.846 490.08 252.783 489.111 251.057C488.143 249.289 486.796 247.921 485.07 246.953C483.387 245.985 481.472 245.501 479.325 245.501C477.178 245.501 475.263 245.985 473.579 246.953C471.895 247.921 470.548 249.289 469.538 251.057C468.528 252.783 468.023 254.846 468.023 257.245C468.023 259.602 468.528 261.686 469.538 263.496C470.548 265.264 471.895 266.632 473.579 267.6C475.263 268.568 477.178 269.052 479.325 269.052Z" fill="#4B2323"/>
<path d="M61.4573 437.746V404.282H67.5188V418.488H86.587V404.282H92.6485V437.746H86.587V423.729H67.5188V437.746H61.4573ZM127.915 437.746V430.674L127.599 429.348V417.289C127.599 414.721 126.841 412.743 125.326 411.354C123.853 409.922 121.622 409.207 118.633 409.207C116.655 409.207 114.718 409.544 112.824 410.217C110.93 410.848 109.33 411.711 108.026 412.806L105.5 408.26C107.226 406.871 109.288 405.818 111.688 405.103C114.129 404.345 116.676 403.966 119.328 403.966C123.916 403.966 127.452 405.082 129.935 407.313C132.419 409.544 133.66 412.953 133.66 417.541V437.746H127.915ZM116.928 438.125C114.445 438.125 112.256 437.704 110.362 436.862C108.51 436.02 107.078 434.863 106.068 433.389C105.058 431.874 104.553 430.169 104.553 428.275C104.553 426.465 104.974 424.823 105.816 423.35C106.7 421.877 108.11 420.698 110.046 419.814C112.024 418.93 114.676 418.488 118.002 418.488H128.609V422.845H118.254C115.223 422.845 113.182 423.35 112.13 424.36C111.077 425.371 110.551 426.591 110.551 428.023C110.551 429.664 111.204 430.99 112.508 432C113.813 432.969 115.623 433.453 117.939 433.453C120.212 433.453 122.19 432.947 123.874 431.937C125.599 430.927 126.841 429.454 127.599 427.517L128.799 431.685C127.999 433.663 126.589 435.242 124.568 436.42C122.548 437.557 120.001 438.125 116.928 438.125ZM168.624 424.045C166.856 424.887 165.025 425.56 163.13 426.065C161.278 426.528 159.363 426.76 157.385 426.76C153.344 426.76 150.145 425.813 147.787 423.918C145.472 422.024 144.315 419.099 144.315 415.142V404.282H150.376V414.763C150.376 417.162 151.113 418.93 152.586 420.067C154.101 421.203 156.122 421.772 158.647 421.772C160.247 421.772 161.889 421.561 163.572 421.14C165.298 420.719 166.982 420.13 168.624 419.372V424.045ZM168.182 437.746V404.282H174.243V437.746H168.182ZM209.491 437.746V430.674L209.175 429.348V417.289C209.175 414.721 208.418 412.743 206.902 411.354C205.429 409.922 203.198 409.207 200.209 409.207C198.231 409.207 196.295 409.544 194.401 410.217C192.506 410.848 190.907 411.711 189.602 412.806L187.076 408.26C188.802 406.871 190.865 405.818 193.264 405.103C195.705 404.345 198.252 403.966 200.904 403.966C205.492 403.966 209.028 405.082 211.511 407.313C213.995 409.544 215.237 412.953 215.237 417.541V437.746H209.491ZM198.505 438.125C196.021 438.125 193.832 437.704 191.938 436.862C190.086 436.02 188.655 434.863 187.645 433.389C186.634 431.874 186.129 430.169 186.129 428.275C186.129 426.465 186.55 424.823 187.392 423.35C188.276 421.877 189.686 420.698 191.622 419.814C193.601 418.93 196.253 418.488 199.578 418.488H210.185V422.845H199.831C196.8 422.845 194.758 423.35 193.706 424.36C192.654 425.371 192.127 426.591 192.127 428.023C192.127 429.664 192.78 430.99 194.085 432C195.39 432.969 197.2 433.453 199.515 433.453C201.788 433.453 203.766 432.947 205.45 431.937C207.176 430.927 208.418 429.454 209.175 427.517L210.375 431.685C209.575 433.663 208.165 435.242 206.145 436.42C204.124 437.557 201.577 438.125 198.505 438.125ZM235.741 437.746V408.007L237.256 409.586H223.492V404.282H254.051V409.586H240.35L241.802 408.007V437.746H235.741ZM278.679 415.647C282.93 415.689 286.171 416.657 288.402 418.552C290.633 420.446 291.748 423.119 291.748 426.57C291.748 430.19 290.528 432.99 288.086 434.968C285.645 436.904 282.193 437.851 277.731 437.809L263.209 437.746V404.282H269.271V415.584L278.679 415.647ZM277.226 433.2C279.962 433.242 282.025 432.695 283.414 431.558C284.845 430.422 285.561 428.738 285.561 426.507C285.561 424.318 284.866 422.719 283.477 421.709C282.088 420.698 280.004 420.172 277.226 420.13L269.271 420.004V433.137L277.226 433.2Z" fill="#4B2323"/>
<path d="M141.712 730.147C138.302 730.147 135.251 729.41 132.557 727.937C129.905 726.464 127.821 724.443 126.306 721.876C124.791 719.308 124.033 716.361 124.033 713.036C124.033 709.711 124.791 706.764 126.306 704.196C127.821 701.629 129.905 699.629 132.557 698.198C135.251 696.725 138.302 695.988 141.712 695.988C144.743 695.988 147.437 696.599 149.794 697.819C152.193 698.998 154.045 700.766 155.35 703.123L150.741 706.091C149.647 704.449 148.3 703.249 146.7 702.492C145.143 701.692 143.459 701.292 141.649 701.292C139.46 701.292 137.503 701.776 135.777 702.744C134.051 703.712 132.683 705.08 131.673 706.848C130.663 708.574 130.157 710.637 130.157 713.036C130.157 715.435 130.663 717.519 131.673 719.287C132.683 721.055 134.051 722.423 135.777 723.391C137.503 724.359 139.46 724.843 141.649 724.843C143.459 724.843 145.143 724.464 146.7 723.707C148.3 722.907 149.647 721.686 150.741 720.045L155.35 722.949C154.045 725.264 152.193 727.053 149.794 728.316C147.437 729.537 144.743 730.147 141.712 730.147ZM166.158 729.768V696.304H172.219V710.51H191.287V696.304H197.349V729.768H191.287V715.751H172.219V729.768H166.158ZM232.615 729.768V722.696L232.299 721.37V709.311C232.299 706.743 231.541 704.765 230.026 703.376C228.553 701.944 226.322 701.229 223.333 701.229C221.355 701.229 219.419 701.566 217.524 702.239C215.63 702.87 214.031 703.733 212.726 704.828L210.2 700.282C211.926 698.893 213.989 697.84 216.388 697.125C218.829 696.367 221.376 695.988 224.028 695.988C228.616 695.988 232.152 697.104 234.635 699.335C237.119 701.566 238.361 704.975 238.361 709.563V729.768H232.615ZM221.628 730.147C219.145 730.147 216.956 729.726 215.062 728.884C213.21 728.042 211.779 726.885 210.768 725.411C209.758 723.896 209.253 722.191 209.253 720.297C209.253 718.487 209.674 716.845 210.516 715.372C211.4 713.899 212.81 712.72 214.746 711.836C216.725 710.952 219.376 710.51 222.702 710.51H233.309V714.867H222.954C219.924 714.867 217.882 715.372 216.83 716.382C215.778 717.393 215.251 718.613 215.251 720.045C215.251 721.686 215.904 723.012 217.209 724.022C218.514 724.99 220.324 725.475 222.639 725.475C224.912 725.475 226.89 724.969 228.574 723.959C230.3 722.949 231.541 721.476 232.299 719.539L233.499 723.707C232.699 725.685 231.289 727.264 229.268 728.442C227.248 729.579 224.701 730.147 221.628 730.147ZM273.324 716.067C271.556 716.909 269.725 717.582 267.831 718.087C265.979 718.55 264.063 718.782 262.085 718.782C258.044 718.782 254.845 717.835 252.488 715.94C250.173 714.046 249.015 711.121 249.015 707.164V696.304H255.076V706.785C255.076 709.184 255.813 710.952 257.286 712.089C258.802 713.225 260.822 713.794 263.348 713.794C264.947 713.794 266.589 713.583 268.273 713.162C269.998 712.741 271.682 712.152 273.324 711.394V716.067ZM272.882 729.768V696.304H278.943V729.768H272.882ZM314.191 729.768V722.696L313.875 721.37V709.311C313.875 706.743 313.118 704.765 311.602 703.376C310.129 701.944 307.898 701.229 304.91 701.229C302.931 701.229 300.995 701.566 299.101 702.239C297.207 702.87 295.607 703.733 294.302 704.828L291.776 700.282C293.502 698.893 295.565 697.84 297.964 697.125C300.406 696.367 302.952 695.988 305.604 695.988C310.192 695.988 313.728 697.104 316.212 699.335C318.695 701.566 319.937 704.975 319.937 709.563V729.768H314.191ZM303.205 730.147C300.721 730.147 298.532 729.726 296.638 728.884C294.786 728.042 293.355 726.885 292.345 725.411C291.334 723.896 290.829 722.191 290.829 720.297C290.829 718.487 291.25 716.845 292.092 715.372C292.976 713.899 294.386 712.72 296.323 711.836C298.301 710.952 300.953 710.51 304.278 710.51H314.886V714.867H304.531C301.5 714.867 299.459 715.372 298.406 716.382C297.354 717.393 296.828 718.613 296.828 720.045C296.828 721.686 297.48 723.012 298.785 724.022C300.09 724.99 301.9 725.475 304.215 725.475C306.488 725.475 308.466 724.969 310.15 723.959C311.876 722.949 313.118 721.476 313.875 719.539L315.075 723.707C314.275 725.685 312.865 727.264 310.845 728.442C308.824 729.579 306.278 730.147 303.205 730.147ZM328.255 729.705L328.634 724.591C328.929 724.633 329.202 724.675 329.455 724.717C329.707 724.759 329.939 724.78 330.149 724.78C331.496 724.78 332.549 724.317 333.306 723.391C334.106 722.465 334.695 721.244 335.074 719.729C335.453 718.171 335.727 716.424 335.895 714.488C336.063 712.552 336.19 710.616 336.274 708.679L336.842 696.304H362.54V729.768H356.479V699.84L357.931 701.608H340.757L342.146 699.777L341.704 709.058C341.578 712.005 341.346 714.762 341.009 717.329C340.673 719.897 340.146 722.149 339.431 724.085C338.757 726.022 337.81 727.537 336.59 728.632C335.411 729.726 333.875 730.273 331.98 730.273C331.433 730.273 330.844 730.21 330.212 730.084C329.623 730 328.971 729.873 328.255 729.705ZM397.741 729.768V722.696L397.425 721.37V709.311C397.425 706.743 396.667 704.765 395.152 703.376C393.679 701.944 391.448 701.229 388.459 701.229C386.481 701.229 384.544 701.566 382.65 702.239C380.756 702.87 379.156 703.733 377.852 704.828L375.326 700.282C377.052 698.893 379.114 697.84 381.514 697.125C383.955 696.367 386.502 695.988 389.154 695.988C393.742 695.988 397.278 697.104 399.761 699.335C402.245 701.566 403.486 704.975 403.486 709.563V729.768H397.741ZM386.754 730.147C384.271 730.147 382.082 729.726 380.188 728.884C378.336 728.042 376.904 726.885 375.894 725.411C374.884 723.896 374.379 722.191 374.379 720.297C374.379 718.487 374.8 716.845 375.642 715.372C376.526 713.899 377.936 712.72 379.872 711.836C381.85 710.952 384.502 710.51 387.828 710.51H398.435V714.867H388.08C385.049 714.867 383.008 715.372 381.956 716.382C380.903 717.393 380.377 718.613 380.377 720.045C380.377 721.686 381.03 723.012 382.334 724.022C383.639 724.99 385.449 725.475 387.765 725.475C390.038 725.475 392.016 724.969 393.7 723.959C395.425 722.949 396.667 721.476 397.425 719.539L398.625 723.707C397.825 725.685 396.415 727.264 394.394 728.442C392.374 729.579 389.827 730.147 386.754 730.147Z" fill="#4B2323"/>
<path d="M283.311 581.784V548.32H298.844C302.758 548.32 305.831 549.078 308.062 550.593C310.335 552.066 311.472 554.171 311.472 556.907C311.472 559.643 310.398 561.769 308.252 563.284C306.147 564.757 303.348 565.494 299.854 565.494L300.801 563.852C304.8 563.852 307.768 564.589 309.704 566.062C311.64 567.536 312.608 569.703 312.608 572.566C312.608 575.47 311.514 577.743 309.325 579.385C307.178 580.984 303.874 581.784 299.412 581.784H283.311ZM289.247 577.112H298.97C301.496 577.112 303.39 576.733 304.653 575.975C305.915 575.176 306.547 573.913 306.547 572.187C306.547 570.419 305.958 569.135 304.779 568.335C303.642 567.494 301.832 567.073 299.349 567.073H289.247V577.112ZM289.247 562.716H298.339C300.654 562.716 302.401 562.295 303.579 561.453C304.8 560.569 305.41 559.348 305.41 557.791C305.41 556.191 304.8 554.992 303.579 554.192C302.401 553.392 300.654 552.992 298.339 552.992H289.247V562.716ZM339.641 582.163C336.231 582.163 333.179 581.426 330.485 579.953C327.833 578.48 325.75 576.459 324.234 573.892C322.719 571.324 321.961 568.377 321.961 565.052C321.961 561.727 322.719 558.78 324.234 556.212C325.75 553.645 327.833 551.645 330.485 550.214C333.179 548.741 336.231 548.004 339.641 548.004C342.671 548.004 345.365 548.615 347.723 549.835C350.122 551.014 351.974 552.782 353.279 555.139L348.67 558.107C347.575 556.465 346.228 555.265 344.629 554.508C343.071 553.708 341.387 553.308 339.577 553.308C337.389 553.308 335.431 553.792 333.705 554.76C331.98 555.728 330.612 557.096 329.601 558.864C328.591 560.59 328.086 562.653 328.086 565.052C328.086 567.451 328.591 569.535 329.601 571.303C330.612 573.071 331.98 574.439 333.705 575.407C335.431 576.375 337.389 576.859 339.577 576.859C341.387 576.859 343.071 576.48 344.629 575.723C346.228 574.923 347.575 573.702 348.67 572.061L353.279 574.965C351.974 577.28 350.122 579.069 347.723 580.332C345.365 581.553 342.671 582.163 339.641 582.163ZM378.494 582.163C374.916 582.163 371.759 581.426 369.023 579.953C366.329 578.48 364.224 576.459 362.709 573.892C361.236 571.324 360.499 568.377 360.499 565.052C360.499 561.727 361.215 558.78 362.646 556.212C364.119 553.645 366.118 551.645 368.644 550.214C371.212 548.741 374.095 548.004 377.294 548.004C380.535 548.004 383.398 548.72 385.881 550.151C388.365 551.582 390.301 553.603 391.69 556.212C393.121 558.78 393.837 561.79 393.837 565.242C393.837 565.494 393.816 565.789 393.774 566.125C393.774 566.462 393.753 566.778 393.711 567.073H365.234V562.716H390.554L388.091 564.231C388.133 562.085 387.691 560.169 386.765 558.486C385.839 556.802 384.555 555.497 382.914 554.571C381.314 553.603 379.441 553.119 377.294 553.119C375.19 553.119 373.316 553.603 371.675 554.571C370.033 555.497 368.749 556.823 367.823 558.549C366.897 560.232 366.434 562.169 366.434 564.358V565.368C366.434 567.599 366.939 569.598 367.949 571.366C369.002 573.092 370.454 574.439 372.306 575.407C374.158 576.375 376.284 576.859 378.683 576.859C380.662 576.859 382.451 576.523 384.05 575.849C385.692 575.176 387.123 574.165 388.344 572.818L391.69 576.733C390.175 578.501 388.281 579.848 386.008 580.774C383.777 581.7 381.272 582.163 378.494 582.163Z" fill="#4B2323"/>
</g>
<defs>
<filter id="filter0_f_1_1106" x="21.7037" y="-12.8256" width="601.803" height="920.462" filterUnits="userSpaceOnUse" color-interpolation-filters="sRGB">
<feFlood flood-opacity="0" result="BackgroundImageFix"/>
<feBlend mode="normal" in="SourceGraphic" in2="BackgroundImageFix" result="shape"/>
<feGaussianBlur stdDeviation="1.97312" result="effect1_foregroundBlur_1_1106"/>
</filter>
<filter id="filter1_f_1_1106" x="83.8341" y="66.2808" width="518.431" height="680.413" filterUnits="userSpaceOnUse" color-interpolation-filters="sRGB">
<feFlood flood-opacity="0" result="BackgroundImageFix"/>
<feBlend mode="normal" in="SourceGraphic" in2="BackgroundImageFix" result="shape"/>
<feGaussianBlur stdDeviation="1.97312" result="effect1_foregroundBlur_1_1106"/>
</filter>
<clipPath id="clip0_1_1106">
<rect width="587.004" height="830.685" fill="white"/>
</clipPath>
</defs>
</svg>
