<svg width="588" height="831" viewBox="0 0 588 831" fill="none" xmlns="http://www.w3.org/2000/svg">
<g clip-path="url(#clip0_1_1163)">
<rect width="587.227" height="831" fill="white"/>
<g opacity="0.32" filter="url(#filter0_f_1_1163)">
<rect x="572.421" y="178.145" width="69.0855" height="69.0855" transform="rotate(45 572.421 178.145)" fill="#EC997E"/>
<rect x="75.4993" y="549.717" width="28.6211" height="28.6211" transform="rotate(45 75.4993 549.717)" fill="#F0BAA8"/>
<rect x="240.812" y="596.722" width="163.831" height="163.831" transform="rotate(45 240.812 596.722)" fill="#F07953"/>
<rect x="485.077" y="106.244" width="20.7257" height="20.7257" transform="rotate(45 485.077 106.244)" fill="#F3C8BA"/>
<rect x="376.516" y="333.104" width="178.635" height="178.635" transform="rotate(45 376.516 333.104)" fill="#E46840"/>
<rect x="135.207" y="84.3276" width="21.7126" height="21.7126" transform="rotate(45 135.207 84.3276)" fill="#F3BDAB"/>
<rect x="3.94708" y="662.928" width="96.7197" height="96.7197" transform="rotate(45 3.94708 662.928)" fill="#E4977E"/>
<rect x="61.6827" y="213.709" width="64.1508" height="64.1508" transform="rotate(45 61.6827 213.709)" fill="#FFB69E"/>
</g>
<g opacity="0.7" filter="url(#filter1_f_1_1163)">
<path d="M402.561 -10.6377C406.761 -2.70277 409.48 4.07993 412.048 12.6392C415.588 24.4374 418.802 36.2825 424.777 47.1127C427.862 52.7042 427.787 60.2526 425.661 66.2056C424.137 70.4733 419.707 76.2768 419.532 80.82C419.135 91.1536 424.836 100.231 424.836 110.049C424.836 120.43 425.896 130.621 425.896 140.986C425.896 154.159 433.615 164.773 435.914 177.581C437.163 184.54 436.595 192.099 436.504 199.149C436.431 204.739 432.539 208.944 432.261 214.235C432.087 217.531 430.315 220.432 429.314 223.546C428.278 226.768 428.27 230.333 427.193 233.564C420.249 254.397 421.654 274.659 421.654 296.5C421.654 320.808 422.336 345.104 422.714 369.336C422.798 374.716 424.836 379.278 424.836 384.54C424.836 389.456 424.166 395.004 425.366 399.802C428.159 410.974 424.836 424.1 424.836 435.454C424.836 440.365 424.836 445.276 424.836 450.187C424.836 455.788 423.874 456.974 419.002 460.853C413.484 465.244 404.07 470.236 396.727 466.156C394.942 465.165 393.187 463.264 391.953 461.619C390.015 459.035 384.245 457.933 381.346 457.376C371.999 455.578 362.505 453.958 352.942 453.958C345.301 453.958 337.66 453.958 330.019 453.958C322.609 453.958 315.614 456.079 308.156 456.079C293.859 456.079 277.667 453.981 264.195 459.497C258.696 461.75 253.609 464.884 247.931 466.687C246.102 467.267 243.104 467.786 241.567 469.044C239.733 470.544 235.765 470.15 233.317 470.694C225.048 472.531 215.457 470.043 208.39 465.626C201.201 461.133 191.218 460.715 184.641 455.078C177.116 448.627 168.279 447.594 158.123 447.594C146.45 447.594 134.842 446.72 123.237 446.533C108.76 446.299 91.6298 444.31 77.98 449.185C70.9609 451.692 63.5018 455.69 55.7049 456.079C48.355 456.447 35.7659 458.371 29.1869 455.254C21.4954 451.611 12.3569 456.123 4.55459 453.722C-2.96006 451.41 -12.8423 452.897 -20.667 452.897" stroke="#717530" stroke-width="11.8432" stroke-linecap="round"/>
<path d="M366.496 -8.5166C366.496 2.74339 357.546 16.096 361.428 27.3122C362.286 29.7894 365.597 30.6032 366.496 32.8515C367.446 35.2263 367.644 37.4585 368.382 40.0408C370.078 45.9773 368.618 54.1337 368.618 60.4302C368.618 68.7701 373.624 77.0357 373.921 85.6518C374.233 94.681 370.739 102.499 370.739 111.345C370.739 117.54 371.8 123.528 371.8 129.613C371.8 136.083 371.942 143.417 373.096 149.766C374.228 155.991 375.87 162.018 377.634 168.093C379.38 174.106 383.468 179.076 383.468 185.536C383.468 199.503 383.468 213.469 383.468 227.435C383.468 232.013 381.868 247.496 378.164 250.83C373.082 255.403 375.651 275.081 376.102 280.942C376.777 289.725 380.259 298.307 381.288 307.048C382.213 314.918 382.407 323.524 382.407 331.444C382.407 337.383 383.817 345.324 381.464 350.773C376.789 361.6 372.018 369.471 364.139 377.35C357.243 384.246 351.848 398.141 339.978 398.8C333.733 399.147 327.523 396.679 321.121 396.679C309.602 396.679 298.955 397.547 288.239 393.261C286.093 392.403 285.903 388.749 283.171 388.252C280.043 387.683 276.332 388.193 273.153 388.193C264.565 388.193 256.278 391.364 247.931 393.261C237.312 395.674 226.07 396.006 215.285 397.504C206.236 398.76 197.12 400.435 187.942 399.802C183.269 399.48 181.731 396.118 178.218 394.557C162.698 387.659 143.621 389.254 126.832 389.254C119.52 389.254 112.718 388.193 105.5 388.193C98.4544 388.193 88.6147 396.183 83.0482 400.097C80.4691 401.91 75.5519 406.225 72.2053 406.225C56.6595 406.225 41.7685 405.282 26.6532 401.923C17.6145 399.915 6.63494 399.999 -1.57373 404.104" stroke="#7D813E" stroke-width="10.8563" stroke-linecap="round"/>
<path d="M319.823 -11.6987C319.823 -3.74736 311.337 0.952244 311.337 8.45496C311.337 15.1925 311.337 21.93 311.337 28.6676C311.337 47.858 322.26 64.8985 311.337 83.5304C307.305 90.4085 307.094 98.3812 307.094 106.277C307.094 114.95 311.337 122.518 311.337 130.968C311.337 142.866 324.066 151.396 324.066 162.849C324.066 167.622 327.664 173.95 329.37 178.642C332.198 186.421 332.875 193.113 332.552 201.506C332.36 206.495 327.835 210.311 327.248 215.295C327.014 217.288 324.214 218.843 324.066 221.66C323.657 229.424 324.415 236.031 326.659 243.405C328.177 248.393 329.185 253.264 330.961 258.196C332.168 261.549 335.734 266.071 335.734 269.392C335.734 278.074 328.478 282.372 324.891 289.546C323.189 292.95 323.005 296.184 323.005 299.917C323.005 305.659 325.604 306.828 327.248 311.762C328.034 314.121 331.376 314.478 332.552 316.535C333.927 318.943 335.006 319.303 335.97 322.193C337.499 326.781 339.685 333.56 337.03 338.339C334.77 342.407 324.322 340.461 320.353 340.461C314.549 340.461 310.959 337.21 306.505 333.566C300.644 328.77 292.93 329.853 285.88 329.853C282.957 329.853 278.271 330.982 276.334 333.271C273.892 336.156 270.261 335.719 267.612 338.103C263.583 341.73 256.845 340.68 252.467 343.112C247.32 345.972 240.004 344.438 234.14 345.528C229.513 346.389 226.89 344.874 223.533 341.757C219.61 338.114 216.472 339.005 211.689 337.809C205.704 336.313 200.932 338.513 195.129 339.871C184.29 342.408 170.77 342.766 159.831 340.873C150.813 339.312 144.619 336.218 135.081 336.218C128.62 336.218 118.624 338.23 112.275 335.746C101.672 331.597 92.8418 330.737 82.4574 334.332C78.8295 335.588 74.4379 336.218 70.5538 336.218C67.6521 336.218 65.143 343.314 63.718 345.646C59.2586 352.943 48.1973 354.399 43.0339 347.944C40.8525 345.218 42.1089 337.888 39.1446 336.748C32.459 334.177 21.7896 338.339 14.5713 338.339C8.28286 338.339 3.42323 334.92 -2.6949 334.155C-6.02145 333.739 -23.6924 332.72 -24.9111 335.157" stroke="#8D924A" stroke-width="9.86936" stroke-linecap="round"/>
<path d="M274.216 -9.57715C266.626 4.75876 267.851 18.3074 267.851 34.5017C267.851 44.6615 258.843 51.5873 253.591 59.8411C249.954 65.5555 253.079 71.5405 255.594 76.9305C260.253 86.9132 256.984 102.783 257.244 113.702C257.502 124.515 260.366 135.101 264.08 145.229C266.64 152.21 269.973 159.004 269.973 166.561C269.973 168.86 269.973 171.158 269.973 173.456C269.973 176.944 266.656 179.278 265.494 182.649C264.368 185.915 261.728 188.527 260.662 191.724C259.792 194.334 260.426 198.205 260.426 200.917C260.426 207.748 267.381 213.193 267.851 219.303C268.218 224.07 272.505 231.242 276.101 234.389C280.508 238.244 279.03 248.551 279.578 253.482C280.453 261.351 284.715 269.702 289.066 276.228C292.471 281.336 293.822 287.221 289.066 292.257C285.313 296.231 278.8 295.058 273.391 294.85C270.302 294.731 269.024 285.387 264.139 284.301C258.687 283.09 251.073 284.604 245.812 285.539C240.734 286.442 236.18 288.829 231.139 289.605C222.475 290.938 216 298.032 206.919 298.032C202.462 298.032 194.434 296.399 190.419 294.614C187.568 293.347 181.97 293.836 180.047 291.432C178.202 289.125 178.132 285.19 176.158 282.651C171.879 277.15 163.379 281.747 157.595 283.771C152.13 285.684 145.803 285.489 140.565 287.896C132.566 291.571 123.216 293.462 114.577 294.791C111.262 295.301 108.152 295.576 104.854 296.5C95.2502 299.189 86.4058 299.729 76.5681 300.978C67.7257 302.101 67.7017 295.214 60.1858 292.139C56.3982 290.589 51.0838 291.605 46.9858 290.843C42.5312 290.014 37.5305 290.607 33.0196 290.607C25.7831 290.607 19.3421 287.425 12.2177 287.425C6.53379 287.425 2.15287 287.219 -0.746676 292.728C-4.85681 300.538 -14.1285 303.078 -18.5432 309.7" stroke="#9CA056" stroke-width="8.88242" stroke-linecap="round"/>
<path d="M228.978 -4.00098C227.17 2.02314 216.374 4.13705 216.374 11.229C216.374 14.9355 221.199 17.7806 221.684 22.1409C221.953 24.5632 222.676 26.6205 222.676 29.1432C222.676 42.6201 218.225 52.9261 210.247 64.0962C207.605 67.794 207.727 72.15 208.029 76.5253C208.437 82.441 208.351 89.6727 210.188 95.3148C214.094 107.311 219.764 118.66 225.185 129.918C231.099 142.201 227.565 157.048 222.734 168.722C220.604 173.871 219.589 182.638 220.692 188.153C221.782 193.606 227.045 198.169 228.336 203.909C229.353 208.428 230.028 212.938 230.028 217.563C230.028 227.415 219.782 226.838 211.589 227.891C202.812 229.02 191.999 231.383 183.813 227.074C177.757 223.887 173.048 218.853 165.957 217.855C160.894 217.142 153.005 216.573 148.101 218.088C134.194 222.387 122.519 233.417 107.371 234.427C97.937 235.056 88.4069 235.477 78.7787 235.477C72.9824 235.477 68.7832 234.831 64.0739 238.395C60.147 241.367 56.9201 245.566 52.5202 247.848C37.7561 255.503 21.3074 255.954 5.48813 251.232C-5.57865 247.929 -15.1354 244.528 -26.8391 243.296C-32.374 242.714 -38.7101 240.729 -44.1114 240.729" stroke="#AAAE64" stroke-width="7.89549" stroke-linecap="round"/>
<path d="M184.866 -1.90039C181.993 4.56328 183.979 12.7852 185.858 19.0481C187.789 25.4843 187.81 29.4121 185.916 36.1454C184.616 40.7696 181.605 44.5479 180.606 49.0412C179.468 54.1632 172.751 59.2225 169.753 63.2209C167.252 66.5554 164.439 70.9712 163.042 75.008C161.044 80.779 161.252 86.619 163.626 92.2804C167.119 100.612 169.236 108.934 172.262 117.255C174.801 124.239 179.524 129.911 182.182 136.745C185.554 145.416 186.943 158.602 182.765 167.205C181.285 170.253 180.359 175.128 177.455 177.125C172.697 180.396 166.682 179.987 161.175 180.626C153.679 181.495 147.406 178.759 139.76 178.759C130.759 178.759 127.573 187.208 120.795 191.83C105.665 202.146 86.1678 191.93 70.3785 199.532C67.7856 200.78 63.632 202.699 60.692 202.916C58.5855 203.073 57.3257 203.82 55.6154 205.017C51.8711 207.638 46.9568 208.634 42.7195 210.211C40.122 211.177 33.5007 214.972 30.4655 213.186C28.3794 211.959 27.1519 205.032 25.739 202.858C18.929 192.381 11.5883 191.363 -1.04477 191.363C-8.82601 191.363 -16.7391 190.951 -24.5024 191.421C-28.3615 191.655 -31.9878 193.584 -35.7061 194.514" stroke="#BCC074" stroke-width="6.90855" stroke-linecap="round"/>
<path d="M-13.0421 152.473C-12.1163 148.77 10.4864 145.412 14.4957 145.412C26.3708 145.412 37.2546 152.473 49.0945 152.473C57.5128 152.473 66.6077 153.808 73.8864 149.649C78.4985 147.013 79.2203 140.539 84.5564 139.057C91.6593 137.084 100.258 138.351 107.622 138.351C113.658 138.351 119.86 138.862 125.353 135.84C129.195 133.728 134.219 125.167 136.965 121.405C148.124 106.112 150.297 96.6511 143.712 78.725C141.017 71.3882 136.775 64.2035 135.239 56.5221C134.366 52.1601 133.819 47.6358 132.414 43.42C129.36 34.2577 131.002 23.0403 131.002 13.4501C131.002 1.52271 133.423 -3.6303 140.574 -12.754C144.254 -17.4492 150.653 -24.953 156.421 -26.876" stroke="#CBCF88" stroke-width="5.92162" stroke-linecap="round"/>
<path d="M90.4924 -7.24951C97.8117 -2.85792 95.2236 9.91975 96.5828 16.9422C97.4912 21.6356 100.514 25.6476 102.067 30.1421C103.151 33.281 103.158 36.2994 103.158 39.581C103.158 42.872 103.703 46.7475 102.867 49.9663C101.576 54.9389 96.9929 58.9393 93.7924 62.7294C92.7828 63.9249 91.294 64.9029 90.7108 66.3933C89.3237 69.9382 90.8674 73.2868 92.8703 76.269C95.0003 79.4403 97.9453 83.1934 98.3784 87.091C98.6271 89.3298 98.844 91.4538 98.7909 93.7395C98.7104 97.2004 93.6739 101.881 91.0262 103.591C82.5242 109.082 74.4033 106.079 64.9661 105.532C59.6929 105.226 55.4986 105.76 50.9655 108.322C48.0442 109.974 46.8845 114.112 43.2251 114.17C37.5454 114.26 32.0669 112.908 26.3855 112.86C25.0218 112.848 22.1474 113.475 21.0473 112.375C19.7036 111.031 18.7014 109.306 17.5047 107.837C14.4016 104.029 8.04392 103.986 3.60112 104.804C0.899408 105.302 -1.45259 106.84 -3.99368 107.813C-7.65904 109.217 -11.3568 110.78 -15.2039 111.55" stroke="#D8DC9A" stroke-width="4.93468" stroke-linecap="round"/>
<path d="M65.5929 -2.0083C64.0053 -1.80985 66.0683 4.92715 66.3209 5.85341C67.489 10.1367 68.7621 14.4674 71.0039 18.3254C72.2777 20.5174 73.4919 21.9713 72.8238 24.5856C71.528 29.656 64.578 32.2727 64.2827 37.737C63.9168 44.5062 63.8459 51.2856 63.8459 58.1192C63.8459 61.5243 63.8459 64.9294 63.8459 68.3346C63.8459 73.3153 57.4341 75.2286 53.8004 77.0455C49.897 78.9972 47.619 80.0786 43.124 79.6176C38.4476 79.1379 34.6711 75.0235 30.0697 73.9882C26.8941 73.2737 23.6034 72.9803 21.019 75.0801C19.3117 76.4673 18.0491 78.2644 16.3359 79.6661C13.2182 82.2169 9.48015 82.524 5.53823 82.6992C0.452738 82.9252 -5.16323 83.2752 -10.2094 82.6264C-12.8561 82.2861 -15.315 81.1897 -18.0469 80.9521C-21.3652 80.6636 -24.8302 79.6603 -27.874 78.3558" stroke="#E1E4A9" stroke-width="3.94774" stroke-linecap="round"/>
<path d="M45.5068 -2.4458C41.4032 -0.394045 41.5901 0.561091 43.0803 4.76076C44.1634 7.81315 45.5068 11.1189 45.5068 14.3938C45.5068 21.128 41.4709 24.0309 36.3105 27.5694C33.9699 29.1744 34.5877 32.1171 34.5877 34.6547C34.5877 37.3168 36.7494 41.1707 38.3245 43.1958C40.356 45.8077 43.5769 53.9545 41.1391 57.1236C40.2136 58.3268 38.2059 57.5617 37.4024 56.4199C36.0086 54.4393 35.3941 53.0229 32.6466 53.0229C27.5025 53.0229 22.3584 53.0229 17.2143 53.0229C12.5829 53.0229 8.14344 54.5428 3.57765 55.3038C0.354035 55.841 -2.96636 55.5477 -6.12816 56.4199C-7.2612 56.7325 -10.2913 55.8655 -10.8355 56.9538" stroke="#EBEEBA" stroke-width="2.96081" stroke-linecap="round"/>
<path d="M26.2853 -3.75537C24.0483 -3.14528 23.148 0.778636 22.1846 2.55341C21.5147 3.78742 20.4876 6.14083 21.2383 7.60043C22.2549 9.57728 24.118 10.5427 24.7566 12.8416C25.1075 14.1046 25.3438 15.0446 25.4118 16.3357C25.4892 17.8064 26.5116 19.1893 26.6978 20.679C26.8757 22.1024 26.722 23.634 26.722 25.0709C26.722 27.6952 25.2707 30.7488 22.3544 30.7488C20.9404 30.7488 20.4784 27.4818 17.9868 28.662C16.4401 29.3947 14.5965 30.1066 13.1824 31.0157C12.0031 31.7739 10.9484 33.079 9.68834 33.7091C7.68209 34.7122 4.71308 34.3682 3.03986 33.0297C1.64919 31.9171 -2.43824 32.4958 -4.28802 32.4958" stroke="#EFF1C7" stroke-width="1.97387" stroke-linecap="round"/>
<path d="M-2.33002 18.9699C-1.21437 18.9141 -0.000131702 18.5974 1.10721 18.9088C1.95264 19.1466 2.10957 20.1728 3.09627 20.2261C4.39503 20.2963 5.96037 20.0076 6.69053 18.8128C8.20319 16.3376 10.5511 16.9902 12.9892 17.9928C14.2179 18.4981 15.1004 19.2401 15.1004 17.2338C15.1004 14.6569 14.5124 12.7934 13.5388 10.4204C13.2107 9.62063 12.7644 8.80271 12.7449 7.92535C12.721 6.84816 13.1934 6.61447 14.0012 5.97119C14.7793 5.3516 15.4601 4.8936 15.8768 3.95596C16.5216 2.50533 16.1996 0.444951 16.1996 -1.0952C16.1996 -3.01926 15.7285 -4.85047 15.7285 -6.7832" stroke="#F7F9D6" stroke-width="0.986936" stroke-linecap="round"/>
</g>
<g opacity="0.7" filter="url(#filter2_f_1_1163)">
<path d="M347.401 845.364C347.401 838.122 346.34 831.385 346.34 824.209C346.34 820.105 345.322 814.497 346.576 810.596C347.91 806.445 348.91 803.255 348.403 798.692C347.773 793.021 341.726 789.513 341.096 783.842C340.614 779.508 338.932 774.349 337.619 770.053C335.137 761.93 329.567 750.4 335.733 742.238C343.988 731.313 350.583 720.815 350.583 706.999C350.583 700.682 351.022 694.498 346.93 689.202C343.278 684.476 340.235 679.465 338.915 673.527C336.112 660.914 336.794 646.147 336.794 633.22C336.794 619.613 334.109 607.19 347.46 599.336C354.089 595.436 370.647 588.299 377.926 594.798C386.579 602.524 396.826 602.459 408.098 602.459C421.144 602.459 434.635 601.387 447.639 602.518C452.815 602.968 458.878 604.395 463.491 606.702C467.129 608.521 471.415 613.366 475.277 614.068C485.547 615.935 497.078 620.519 506.509 613.891C517.09 606.456 531.978 602.822 544.695 602.459C552.625 602.232 561.187 597.885 569.092 601.398C577.315 605.053 587.928 608.136 596.67 609.884" stroke="#717530" stroke-width="11.8432" stroke-linecap="round"/>
<path d="M394.072 837.939C389.273 837.339 395.174 810.691 395.957 807.413C398.184 798.104 403.457 790.125 405.504 780.66C407.84 769.854 405.74 756.461 405.74 745.42C405.74 733.147 403.701 721.863 401.556 710.063C400.985 706.925 399.866 702.726 398.079 700.045C395.098 695.574 395.393 689.314 393.6 684.193C391.025 676.836 388.538 667.512 387.766 659.797C386.728 649.415 390.026 645.751 396.724 639.054C402.806 632.971 407.409 639.804 413.165 642.53C418.562 645.087 430.716 642.766 436.501 642.766C443.895 642.766 450.722 644.629 457.951 644.888C460.685 644.985 461.291 647.547 463.608 648.6C467.283 650.27 470.654 651.252 474.687 651.252C484.51 651.252 492.494 644.854 502.265 643.768C507.377 643.2 511.852 641.705 517.115 641.705C521.906 641.705 526.357 640.907 530.964 639.525C539.637 636.923 548.227 631.098 557.482 631.098C568.016 631.098 577.902 631.991 586.534 639.054C592.522 643.953 603.862 645.948 611.519 645.948" stroke="#7D813E" stroke-width="10.8563" stroke-linecap="round"/>
<path d="M437.564 835.818C437.564 828.461 434.997 815.163 438.684 808.711C440.467 805.59 441.009 801.99 442.868 798.928C444.925 795.54 448.62 791.377 450.057 787.85C455.58 774.294 453.475 759.09 453.475 744.596C453.475 738.835 450.293 733.925 450.293 728.214C450.293 723.177 449.232 718.849 449.232 713.835C449.232 707.838 447.62 704.289 454.536 704.289C457.447 704.289 466.359 706.791 467.5 704.053C469.29 699.757 475.317 694.921 478.343 691.03C480.681 688.023 482.871 683.074 487.418 683.074C496.788 683.074 503.445 688.378 513.111 688.378C526.028 688.378 537.387 676.687 548.94 671.406C553.679 669.24 564.957 669.149 570.213 670.463C575.695 671.834 580.458 674.002 586.301 674.824C590.339 675.392 595.228 674.927 598.794 676.71" stroke="#8D924A" stroke-width="9.86936" stroke-linecap="round"/>
<path d="M477.87 833.696C473.523 833.152 485.899 814.272 486.415 811.951C488.58 802.205 486.356 792.264 486.356 782.545C486.356 771.47 485.314 759.789 486.415 748.779C486.874 744.186 489.233 734.124 493.781 732.102C496.532 730.879 501.661 730.233 503.799 728.095C511.626 720.268 519.083 718.077 529.845 718.077C541.292 718.077 545.952 724.641 554.713 730.217C557.107 731.74 563.397 731.173 565.91 730.276C567.95 729.547 570.364 729.253 572.274 728.449C573.68 727.857 575.314 725.573 576.517 725.502C581.456 725.212 587.533 721.815 591.897 719.727C597.023 717.276 602.706 716.552 607.867 714.07C609.98 713.054 612.335 711.713 614.703 711.713" stroke="#9CA056" stroke-width="8.88242" stroke-linecap="round"/>
<path d="M512.871 833.696C518.857 833.696 518.174 818.126 518.174 814.073C518.174 805.486 520.107 799.617 522.358 791.739C523.558 787.539 525.599 782.68 525.599 778.008C525.599 773.024 528.842 767.308 534.085 765.81C539.071 764.385 542.592 761.567 547.874 761.567C550.612 761.567 551.195 764.749 553.708 764.749C556.635 764.749 559.562 764.749 562.489 764.749C565.131 764.749 569.498 765.624 571.8 764.16C573.855 762.852 578.271 761.705 580.757 761.567C587.134 761.213 591.886 756.663 597.728 755.203" stroke="#AAAE64" stroke-width="7.89549" stroke-linecap="round"/>
<path d="M541.978 831.021C541.978 826.497 542.651 823.171 545.129 819.234C547.449 815.55 551.772 814.003 553.766 810.015C556.029 805.488 551.492 791.9 555.108 789.008C560.327 784.832 567.617 785.857 574.014 785.857C577.423 785.857 579.847 787.957 583.525 787.957C589.324 787.957 593.424 782.363 598.697 780.605" stroke="#BCC074" stroke-width="6.90855" stroke-linecap="round"/>
<path d="M565.958 835.977C565.958 830.563 565.958 825.15 565.958 819.736C565.958 816.448 571.37 815.482 573.019 812.597C579.272 801.655 595.834 802.084 606.912 802.084" stroke="#CBCF88" stroke-width="5.92162" stroke-linecap="round"/>
</g>
<path opacity="0.8" d="M81.4968 531.491V493.498H59.7053L59.2315 503.162C59.1052 506.321 58.8841 509.384 58.5683 512.353C58.3157 515.258 57.8735 517.943 57.2419 520.406C56.6734 522.869 55.8207 524.891 54.6837 526.47C53.5468 528.049 52.0309 529.028 50.1359 529.407L41.1351 527.796C43.0932 527.859 44.6723 527.228 45.8724 525.901C47.0725 524.512 47.9884 522.617 48.62 520.217C49.3148 517.816 49.8201 515.1 50.1359 512.068C50.4518 508.973 50.7044 505.784 50.8939 502.499L51.6519 485.54H90.5924V531.491H81.4968ZM39.1454 547.409V527.796H98.2668V547.409H89.7397V535.755H47.7673V547.409H39.1454ZM113.077 535.755V485.54H136.384C142.259 485.54 146.869 486.677 150.217 488.95C153.628 491.161 155.333 494.319 155.333 498.425C155.333 502.531 153.723 505.72 150.501 507.994C147.343 510.205 143.143 511.31 137.9 511.31L139.321 508.847C145.322 508.847 149.775 509.952 152.681 512.163C155.586 514.374 157.039 517.627 157.039 521.922C157.039 526.28 155.397 529.691 152.112 532.155C148.891 534.555 143.932 535.755 137.237 535.755H113.077ZM121.983 528.744H136.574C140.364 528.744 143.206 528.175 145.101 527.038C146.996 525.838 147.943 523.943 147.943 521.354C147.943 518.701 147.059 516.774 145.29 515.574C143.585 514.311 140.869 513.679 137.142 513.679H121.983V528.744ZM121.983 507.142H135.626C139.1 507.142 141.722 506.51 143.49 505.247C145.322 503.92 146.238 502.089 146.238 499.751C146.238 497.351 145.322 495.551 143.49 494.351C141.722 493.151 139.1 492.551 135.626 492.551H121.983V507.142ZM174.236 535.755V485.54H183.332V522.111L214.124 485.54H222.367V535.755H213.271V499.183L182.574 535.755H174.236ZM302.577 535.755L286.565 511.31L294.05 506.763L313.378 535.755H302.577ZM276.143 514.532V506.763H292.44V514.532H276.143ZM294.903 511.689L286.281 510.552L302.293 485.54H312.052L294.903 511.689ZM246.204 535.755H235.403L254.636 506.763L262.121 511.31L246.204 535.755ZM278.891 535.755H269.795V485.54H278.891V535.755ZM272.543 514.532H256.341V506.763H272.543V514.532ZM253.878 511.689L236.729 485.54H246.393L262.405 510.552L253.878 511.689ZM347.042 536.323C341.673 536.323 336.936 535.218 332.83 533.007C328.788 530.797 325.629 527.765 323.356 523.912C321.145 520.059 320.039 515.637 320.039 510.647C320.039 505.657 321.113 501.236 323.261 497.383C325.472 493.53 328.472 490.53 332.262 488.382C336.115 486.171 340.441 485.066 345.242 485.066C350.105 485.066 354.401 486.14 358.127 488.287C361.854 490.435 364.759 493.467 366.844 497.383C368.991 501.236 370.065 505.752 370.065 510.931C370.065 511.31 370.034 511.753 369.971 512.258C369.971 512.763 369.939 513.237 369.876 513.679H327.145V507.142H365.138L361.443 509.416C361.507 506.194 360.843 503.32 359.454 500.794C358.064 498.267 356.138 496.309 353.674 494.919C351.274 493.467 348.463 492.74 345.242 492.74C342.084 492.74 339.273 493.467 336.809 494.919C334.346 496.309 332.42 498.299 331.03 500.888C329.64 503.415 328.946 506.321 328.946 509.605V511.121C328.946 514.469 329.704 517.469 331.219 520.122C332.799 522.712 334.978 524.733 337.757 526.186C340.536 527.638 343.726 528.365 347.326 528.365C350.295 528.365 352.979 527.859 355.38 526.849C357.843 525.838 359.991 524.322 361.822 522.301L366.844 528.175C364.57 530.828 361.728 532.849 358.317 534.239C354.969 535.629 351.211 536.323 347.042 536.323ZM387.137 535.755V485.54H396.232V506.857H424.845V485.54H433.941V535.755H424.845V514.721H396.232V535.755H387.137ZM454.587 535.755V485.54H463.683V522.111L494.475 485.54H502.718V535.755H493.623V499.183L462.925 535.755H454.587ZM555.453 535.755V518.132L556.874 519.838H540.862C534.166 519.838 528.924 518.416 525.134 515.574C521.407 512.732 519.544 508.594 519.544 503.162C519.544 497.351 521.534 492.961 525.513 489.993C529.555 487.024 534.924 485.54 541.62 485.54H563.601V535.755H555.453ZM519.07 535.755L532.714 516.521H542.093L528.829 535.755H519.07ZM555.453 515.29V490.94L556.874 493.498H541.904C537.735 493.498 534.514 494.288 532.24 495.867C529.966 497.383 528.829 499.909 528.829 503.447C528.829 510.016 533.061 513.3 541.525 513.3H556.874L555.453 515.29Z" fill="#7A0916" fill-opacity="0.8"/>
<path opacity="0.8" d="M81.4968 568.995V531.002H59.7053L59.2315 540.666C59.1052 543.824 58.8841 546.888 58.5683 549.857C58.3157 552.762 57.8735 555.447 57.2419 557.91C56.6734 560.373 55.8207 562.395 54.6837 563.974C53.5468 565.553 52.0309 566.532 50.1359 566.911L41.1351 565.3C43.0932 565.363 44.6723 564.732 45.8724 563.405C47.0725 562.016 47.9884 560.121 48.62 557.72C49.3148 555.32 49.8201 552.604 50.1359 549.572C50.4518 546.477 50.7044 543.288 50.8939 540.003L51.6519 523.043H90.5924V568.995H81.4968ZM39.1454 584.913V565.3H98.2668V584.913H89.7397V573.259H47.7673V584.913H39.1454ZM113.077 573.259V523.043H136.384C142.259 523.043 146.869 524.18 150.217 526.454C153.628 528.665 155.333 531.823 155.333 535.929C155.333 540.035 153.723 543.224 150.501 545.498C147.343 547.709 143.143 548.814 137.9 548.814L139.321 546.351C145.322 546.351 149.775 547.456 152.681 549.667C155.586 551.878 157.039 555.131 157.039 559.426C157.039 563.784 155.397 567.195 152.112 569.658C148.891 572.059 143.932 573.259 137.237 573.259H113.077ZM121.983 566.248H136.574C140.364 566.248 143.206 565.679 145.101 564.542C146.996 563.342 147.943 561.447 147.943 558.857C147.943 556.205 147.059 554.278 145.29 553.078C143.585 551.815 140.869 551.183 137.142 551.183H121.983V566.248ZM121.983 544.646H135.626C139.1 544.646 141.722 544.014 143.49 542.751C145.322 541.424 146.238 539.592 146.238 537.255C146.238 534.855 145.322 533.055 143.49 531.855C141.722 530.655 139.1 530.055 135.626 530.055H121.983V544.646ZM174.236 573.259V523.043H183.332V559.615L214.124 523.043H222.367V573.259H213.271V536.687L182.574 573.259H174.236ZM302.577 573.259L286.565 548.814L294.05 544.267L313.378 573.259H302.577ZM276.143 552.036V544.267H292.44V552.036H276.143ZM294.903 549.193L286.281 548.056L302.293 523.043H312.052L294.903 549.193ZM246.204 573.259H235.403L254.636 544.267L262.121 548.814L246.204 573.259ZM278.891 573.259H269.795V523.043H278.891V573.259ZM272.543 552.036H256.341V544.267H272.543V552.036ZM253.878 549.193L236.729 523.043H246.393L262.405 548.056L253.878 549.193ZM347.042 573.827C341.673 573.827 336.936 572.722 332.83 570.511C328.788 568.3 325.629 565.269 323.356 561.416C321.145 557.563 320.039 553.141 320.039 548.151C320.039 543.161 321.113 538.74 323.261 534.887C325.472 531.034 328.472 528.033 332.262 525.886C336.115 523.675 340.441 522.57 345.242 522.57C350.105 522.57 354.401 523.644 358.127 525.791C361.854 527.939 364.759 530.971 366.844 534.887C368.991 538.74 370.065 543.256 370.065 548.435C370.065 548.814 370.034 549.257 369.971 549.762C369.971 550.267 369.939 550.741 369.876 551.183H327.145V544.646H365.138L361.443 546.919C361.507 543.698 360.843 540.824 359.454 538.298C358.064 535.771 356.138 533.813 353.674 532.423C351.274 530.971 348.463 530.244 345.242 530.244C342.084 530.244 339.273 530.971 336.809 532.423C334.346 533.813 332.42 535.803 331.03 538.392C329.64 540.919 328.946 543.824 328.946 547.109V548.625C328.946 551.973 329.704 554.973 331.219 557.626C332.799 560.215 334.978 562.237 337.757 563.689C340.536 565.142 343.726 565.869 347.326 565.869C350.295 565.869 352.979 565.363 355.38 564.353C357.843 563.342 359.991 561.826 361.822 559.805L366.844 565.679C364.57 568.332 361.728 570.353 358.317 571.743C354.969 573.132 351.211 573.827 347.042 573.827ZM387.137 573.259V523.043H396.232V544.361H424.845V523.043H433.941V573.259H424.845V552.225H396.232V573.259H387.137ZM454.587 573.259V523.043H463.683V559.615L494.475 523.043H502.718V573.259H493.623V536.687L462.925 573.259H454.587ZM555.453 573.259V555.636L556.874 557.341H540.862C534.166 557.341 528.924 555.92 525.134 553.078C521.407 550.236 519.544 546.098 519.544 540.666C519.544 534.855 521.534 530.465 525.513 527.497C529.555 524.528 534.924 523.043 541.62 523.043H563.601V573.259H555.453ZM519.07 573.259L532.714 554.025H542.093L528.829 573.259H519.07ZM555.453 552.794V528.444L556.874 531.002H541.904C537.735 531.002 534.514 531.792 532.24 533.371C529.966 534.887 528.829 537.413 528.829 540.95C528.829 547.52 533.061 550.804 541.525 550.804H556.874L555.453 552.794Z" fill="#7A0916" fill-opacity="0.6"/>
<path opacity="0.8" d="M81.4968 605.512V567.519H59.7053L59.2315 577.183C59.1052 580.341 58.8841 583.404 58.5683 586.373C58.3157 589.279 57.8735 591.963 57.2419 594.427C56.6734 596.89 55.8207 598.911 54.6837 600.49C53.5468 602.069 52.0309 603.048 50.1359 603.427L41.1351 601.817C43.0932 601.88 44.6723 601.248 45.8724 599.922C47.0725 598.532 47.9884 596.637 48.62 594.237C49.3148 591.837 49.8201 589.121 50.1359 586.089C50.4518 582.994 50.7044 579.804 50.8939 576.52L51.6519 559.56H90.5924V605.512H81.4968ZM39.1454 621.429V601.817H98.2668V621.429H89.7397V609.775H47.7673V621.429H39.1454ZM113.077 609.775V559.56H136.384C142.259 559.56 146.869 560.697 150.217 562.971C153.628 565.182 155.333 568.34 155.333 572.446C155.333 576.551 153.723 579.741 150.501 582.015C147.343 584.226 143.143 585.331 137.9 585.331L139.321 582.868C145.322 582.868 149.775 583.973 152.681 586.184C155.586 588.394 157.039 591.647 157.039 595.942C157.039 600.301 155.397 603.712 152.112 606.175C148.891 608.575 143.932 609.775 137.237 609.775H113.077ZM121.983 602.764H136.574C140.364 602.764 143.206 602.196 145.101 601.059C146.996 599.859 147.943 597.964 147.943 595.374C147.943 592.721 147.059 590.795 145.29 589.595C143.585 588.331 140.869 587.7 137.142 587.7H121.983V602.764ZM121.983 581.162H135.626C139.1 581.162 141.722 580.531 143.49 579.267C145.322 577.941 146.238 576.109 146.238 573.772C146.238 571.372 145.322 569.572 143.49 568.371C141.722 567.171 139.1 566.571 135.626 566.571H121.983V581.162ZM174.236 609.775V559.56H183.332V596.132L214.124 559.56H222.367V609.775H213.271V573.203L182.574 609.775H174.236ZM302.577 609.775L286.565 585.331L294.05 580.783L313.378 609.775H302.577ZM276.143 588.552V580.783H292.44V588.552H276.143ZM294.903 585.71L286.281 584.573L302.293 559.56H312.052L294.903 585.71ZM246.204 609.775H235.403L254.636 580.783L262.121 585.331L246.204 609.775ZM278.891 609.775H269.795V559.56H278.891V609.775ZM272.543 588.552H256.341V580.783H272.543V588.552ZM253.878 585.71L236.729 559.56H246.393L262.405 584.573L253.878 585.71ZM347.042 610.344C341.673 610.344 336.936 609.238 332.83 607.028C328.788 604.817 325.629 601.785 323.356 597.932C321.145 594.079 320.039 589.658 320.039 584.668C320.039 579.678 321.113 575.256 323.261 571.403C325.472 567.55 328.472 564.55 332.262 562.402C336.115 560.192 340.441 559.086 345.242 559.086C350.105 559.086 354.401 560.16 358.127 562.308C361.854 564.455 364.759 567.487 366.844 571.403C368.991 575.256 370.065 579.773 370.065 584.952C370.065 585.331 370.034 585.773 369.971 586.278C369.971 586.784 369.939 587.257 369.876 587.7H327.145V581.162H365.138L361.443 583.436C361.507 580.215 360.843 577.341 359.454 574.814C358.064 572.288 356.138 570.33 353.674 568.94C351.274 567.487 348.463 566.761 345.242 566.761C342.084 566.761 339.273 567.487 336.809 568.94C334.346 570.33 332.42 572.319 331.03 574.909C329.64 577.435 328.946 580.341 328.946 583.626V585.141C328.946 588.489 329.704 591.489 331.219 594.142C332.799 596.732 334.978 598.753 337.757 600.206C340.536 601.659 343.726 602.385 347.326 602.385C350.295 602.385 352.979 601.88 355.38 600.869C357.843 599.859 359.991 598.343 361.822 596.321L366.844 602.196C364.57 604.849 361.728 606.87 358.317 608.259C354.969 609.649 351.211 610.344 347.042 610.344ZM387.137 609.775V559.56H396.232V580.878H424.845V559.56H433.941V609.775H424.845V588.742H396.232V609.775H387.137ZM454.587 609.775V559.56H463.683V596.132L494.475 559.56H502.718V609.775H493.623V573.203L462.925 609.775H454.587ZM555.453 609.775V592.153L556.874 593.858H540.862C534.166 593.858 528.924 592.437 525.134 589.595C521.407 586.752 519.544 582.615 519.544 577.183C519.544 571.372 521.534 566.982 525.513 564.013C529.555 561.044 534.924 559.56 541.62 559.56H563.601V609.775H555.453ZM519.07 609.775L532.714 590.542H542.093L528.829 609.775H519.07ZM555.453 589.31V564.961L556.874 567.519H541.904C537.735 567.519 534.514 568.308 532.24 569.887C529.966 571.403 528.829 573.93 528.829 577.467C528.829 584.036 533.061 587.321 541.525 587.321H556.874L555.453 589.31Z" fill="#7A0916" fill-opacity="0.4"/>
<path opacity="0.8" d="M81.4968 642.028V604.035H59.7053L59.2315 613.699C59.1052 616.858 58.8841 619.921 58.5683 622.89C58.3157 625.795 57.8735 628.48 57.2419 630.943C56.6734 633.407 55.8207 635.428 54.6837 637.007C53.5468 638.586 52.0309 639.565 50.1359 639.944L41.1351 638.333C43.0932 638.397 44.6723 637.765 45.8724 636.438C47.0725 635.049 47.9884 633.154 48.62 630.754C49.3148 628.353 49.8201 625.637 50.1359 622.606C50.4518 619.51 50.7044 616.321 50.8939 613.036L51.6519 596.077H90.5924V642.028H81.4968ZM39.1454 657.946V638.333H98.2668V657.946H89.7397V646.292H47.7673V657.946H39.1454ZM113.077 646.292V596.077H136.384C142.259 596.077 146.869 597.214 150.217 599.488C153.628 601.698 155.333 604.856 155.333 608.962C155.333 613.068 153.723 616.258 150.501 618.531C147.343 620.742 143.143 621.848 137.9 621.848L139.321 619.384C145.322 619.384 149.775 620.49 152.681 622.7C155.586 624.911 157.039 628.164 157.039 632.459C157.039 636.817 155.397 640.228 152.112 642.692C148.891 645.092 143.932 646.292 137.237 646.292H113.077ZM121.983 639.281H136.574C140.364 639.281 143.206 638.712 145.101 637.575C146.996 636.375 147.943 634.48 147.943 631.891C147.943 629.238 147.059 627.311 145.29 626.111C143.585 624.848 140.869 624.216 137.142 624.216H121.983V639.281ZM121.983 617.679H135.626C139.1 617.679 141.722 617.047 143.49 615.784C145.322 614.457 146.238 612.626 146.238 610.289C146.238 607.888 145.322 606.088 143.49 604.888C141.722 603.688 139.1 603.088 135.626 603.088H121.983V617.679ZM174.236 646.292V596.077H183.332V632.649L214.124 596.077H222.367V646.292H213.271V609.72L182.574 646.292H174.236ZM302.577 646.292L286.565 621.848L294.05 617.3L313.378 646.292H302.577ZM276.143 625.069V617.3H292.44V625.069H276.143ZM294.903 622.227L286.281 621.09L302.293 596.077H312.052L294.903 622.227ZM246.204 646.292H235.403L254.636 617.3L262.121 621.848L246.204 646.292ZM278.891 646.292H269.795V596.077H278.891V646.292ZM272.543 625.069H256.341V617.3H272.543V625.069ZM253.878 622.227L236.729 596.077H246.393L262.405 621.09L253.878 622.227ZM347.042 646.86C341.673 646.86 336.936 645.755 332.83 643.544C328.788 641.334 325.629 638.302 323.356 634.449C321.145 630.596 320.039 626.174 320.039 621.184C320.039 616.194 321.113 611.773 323.261 607.92C325.472 604.067 328.472 601.067 332.262 598.919C336.115 596.708 340.441 595.603 345.242 595.603C350.105 595.603 354.401 596.677 358.127 598.824C361.854 600.972 364.759 604.004 366.844 607.92C368.991 611.773 370.065 616.289 370.065 621.469C370.065 621.848 370.034 622.29 369.971 622.795C369.971 623.3 369.939 623.774 369.876 624.216H327.145V617.679H365.138L361.443 619.953C361.507 616.731 360.843 613.857 359.454 611.331C358.064 608.804 356.138 606.846 353.674 605.457C351.274 604.004 348.463 603.277 345.242 603.277C342.084 603.277 339.273 604.004 336.809 605.457C334.346 606.846 332.42 608.836 331.03 611.426C329.64 613.952 328.946 616.858 328.946 620.142V621.658C328.946 625.006 329.704 628.006 331.219 630.659C332.799 633.249 334.978 635.27 337.757 636.723C340.536 638.175 343.726 638.902 347.326 638.902C350.295 638.902 352.979 638.397 355.38 637.386C357.843 636.375 359.991 634.859 361.822 632.838L366.844 638.712C364.57 641.365 361.728 643.386 358.317 644.776C354.969 646.166 351.211 646.86 347.042 646.86ZM387.137 646.292V596.077H396.232V617.395H424.845V596.077H433.941V646.292H424.845V625.258H396.232V646.292H387.137ZM454.587 646.292V596.077H463.683V632.649L494.475 596.077H502.718V646.292H493.623V609.72L462.925 646.292H454.587ZM555.453 646.292V628.669L556.874 630.375H540.862C534.166 630.375 528.924 628.954 525.134 626.111C521.407 623.269 519.544 619.132 519.544 613.699C519.544 607.888 521.534 603.498 525.513 600.53C529.555 597.561 534.924 596.077 541.62 596.077H563.601V646.292H555.453ZM519.07 646.292L532.714 627.059H542.093L528.829 646.292H519.07ZM555.453 625.827V601.477L556.874 604.035H541.904C537.735 604.035 534.514 604.825 532.24 606.404C529.966 607.92 528.829 610.446 528.829 613.984C528.829 620.553 533.061 623.837 541.525 623.837H556.874L555.453 625.827Z" fill="#7A0916" fill-opacity="0.2"/>
<path opacity="0.8" d="M81.4968 679.532V641.539H59.7053L59.2315 651.203C59.1052 654.361 58.8841 657.424 58.5683 660.393C58.3157 663.299 57.8735 665.983 57.2419 668.447C56.6734 670.91 55.8207 672.931 54.6837 674.51C53.5468 676.089 52.0309 677.068 50.1359 677.447L41.1351 675.837C43.0932 675.9 44.6723 675.268 45.8724 673.942C47.0725 672.552 47.9884 670.657 48.62 668.257C49.3148 665.857 49.8201 663.141 50.1359 660.109C50.4518 657.014 50.7044 653.824 50.8939 650.54L51.6519 633.58H90.5924V679.532H81.4968ZM39.1454 695.449V675.837H98.2668V695.449H89.7397V683.795H47.7673V695.449H39.1454ZM113.077 683.795V633.58H136.384C142.259 633.58 146.869 634.717 150.217 636.991C153.628 639.202 155.333 642.36 155.333 646.466C155.333 650.571 153.723 653.761 150.501 656.035C147.343 658.246 143.143 659.351 137.9 659.351L139.321 656.888C145.322 656.888 149.775 657.993 152.681 660.204C155.586 662.414 157.039 665.667 157.039 669.963C157.039 674.321 155.397 677.732 152.112 680.195C148.891 682.595 143.932 683.795 137.237 683.795H113.077ZM121.983 676.784H136.574C140.364 676.784 143.206 676.216 145.101 675.079C146.996 673.879 147.943 671.984 147.943 669.394C147.943 666.741 147.059 664.815 145.29 663.615C143.585 662.351 140.869 661.72 137.142 661.72H121.983V676.784ZM121.983 655.182H135.626C139.1 655.182 141.722 654.551 143.49 653.287C145.322 651.961 146.238 650.129 146.238 647.792C146.238 645.392 145.322 643.592 143.49 642.391C141.722 641.191 139.1 640.591 135.626 640.591H121.983V655.182ZM174.236 683.795V633.58H183.332V670.152L214.124 633.58H222.367V683.795H213.271V647.224L182.574 683.795H174.236ZM302.577 683.795L286.565 659.351L294.05 654.803L313.378 683.795H302.577ZM276.143 662.572V654.803H292.44V662.572H276.143ZM294.903 659.73L286.281 658.593L302.293 633.58H312.052L294.903 659.73ZM246.204 683.795H235.403L254.636 654.803L262.121 659.351L246.204 683.795ZM278.891 683.795H269.795V633.58H278.891V683.795ZM272.543 662.572H256.341V654.803H272.543V662.572ZM253.878 659.73L236.729 633.58H246.393L262.405 658.593L253.878 659.73ZM347.042 684.364C341.673 684.364 336.936 683.259 332.83 681.048C328.788 678.837 325.629 675.805 323.356 671.952C321.145 668.099 320.039 663.678 320.039 658.688C320.039 653.698 321.113 649.276 323.261 645.423C325.472 641.57 328.472 638.57 332.262 636.422C336.115 634.212 340.441 633.106 345.242 633.106C350.105 633.106 354.401 634.18 358.127 636.328C361.854 638.475 364.759 641.507 366.844 645.423C368.991 649.276 370.065 653.793 370.065 658.972C370.065 659.351 370.034 659.793 369.971 660.298C369.971 660.804 369.939 661.277 369.876 661.72H327.145V655.182H365.138L361.443 657.456C361.507 654.235 360.843 651.361 359.454 648.834C358.064 646.308 356.138 644.35 353.674 642.96C351.274 641.507 348.463 640.781 345.242 640.781C342.084 640.781 339.273 641.507 336.809 642.96C334.346 644.35 332.42 646.339 331.03 648.929C329.64 651.455 328.946 654.361 328.946 657.646V659.161C328.946 662.509 329.704 665.509 331.219 668.162C332.799 670.752 334.978 672.773 337.757 674.226C340.536 675.679 343.726 676.405 347.326 676.405C350.295 676.405 352.979 675.9 355.38 674.889C357.843 673.879 359.991 672.363 361.822 670.342L366.844 676.216C364.57 678.869 361.728 680.89 358.317 682.279C354.969 683.669 351.211 684.364 347.042 684.364ZM387.137 683.795V633.58H396.232V654.898H424.845V633.58H433.941V683.795H424.845V662.762H396.232V683.795H387.137ZM454.587 683.795V633.58H463.683V670.152L494.475 633.58H502.718V683.795H493.623V647.224L462.925 683.795H454.587ZM555.453 683.795V666.173L556.874 667.878H540.862C534.166 667.878 528.924 666.457 525.134 663.615C521.407 660.772 519.544 656.635 519.544 651.203C519.544 645.392 521.534 641.002 525.513 638.033C529.555 635.064 534.924 633.58 541.62 633.58H563.601V683.795H555.453ZM519.07 683.795L532.714 664.562H542.093L528.829 683.795H519.07ZM555.453 663.33V638.981L556.874 641.539H541.904C537.735 641.539 534.514 642.328 532.24 643.907C529.966 645.423 528.829 647.95 528.829 651.487C528.829 658.056 533.061 661.341 541.525 661.341H556.874L555.453 663.33Z" fill="#7A0916" fill-opacity="0.1"/>
<path opacity="0.8" d="M80.5092 718.022V680.029H58.7176L58.2439 689.693C58.1176 692.851 57.8965 695.915 57.5807 698.883C57.328 701.789 56.8859 704.473 56.2542 706.937C55.6858 709.4 54.833 711.421 53.6961 713.001C52.5591 714.58 51.0432 715.559 49.1483 715.938L40.1474 714.327C42.1055 714.39 43.6846 713.759 44.8847 712.432C46.0848 711.042 47.0007 709.148 47.6324 706.747C48.3272 704.347 48.8325 701.631 49.1483 698.599C49.4641 695.504 49.7168 692.314 49.9063 689.03L50.6642 672.07H89.6048V718.022H80.5092ZM38.1578 733.939V714.327H97.2792V733.939H88.7521V722.286H46.7796V733.939H38.1578ZM112.089 722.286V672.07H135.397C141.271 672.07 145.882 673.207 149.23 675.481C152.64 677.692 154.346 680.85 154.346 684.956C154.346 689.061 152.735 692.251 149.514 694.525C146.356 696.736 142.155 697.841 136.913 697.841L138.334 695.378C144.334 695.378 148.787 696.483 151.693 698.694C154.598 700.905 156.051 704.158 156.051 708.453C156.051 712.811 154.409 716.222 151.124 718.685C147.903 721.086 142.945 722.286 136.249 722.286H112.089ZM120.995 715.274H135.586C139.376 715.274 142.218 714.706 144.113 713.569C146.008 712.369 146.956 710.474 146.956 707.884C146.956 705.231 146.071 703.305 144.303 702.105C142.597 700.842 139.881 700.21 136.155 700.21H120.995V715.274ZM120.995 693.672H134.639C138.113 693.672 140.734 693.041 142.503 691.777C144.334 690.451 145.25 688.619 145.25 686.282C145.25 683.882 144.334 682.082 142.503 680.882C140.734 679.682 138.113 679.082 134.639 679.082H120.995V693.672ZM173.248 722.286V672.07H182.344V708.642L213.136 672.07H221.379V722.286H212.284V685.714L181.586 722.286H173.248ZM301.59 722.286L285.578 697.841L293.063 693.293L312.391 722.286H301.59ZM275.156 701.063V693.293H291.452V701.063H275.156ZM293.915 698.22L285.293 697.083L301.305 672.07H311.064L293.915 698.22ZM245.216 722.286H234.415L253.648 693.293L261.133 697.841L245.216 722.286ZM277.903 722.286H268.808V672.07H277.903V722.286ZM271.555 701.063H255.354V693.293H271.555V701.063ZM252.89 698.22L235.741 672.07H245.405L261.417 697.083L252.89 698.22ZM346.054 722.854C340.685 722.854 335.948 721.749 331.843 719.538C327.8 717.327 324.642 714.295 322.368 710.442C320.157 706.589 319.052 702.168 319.052 697.178C319.052 692.188 320.126 687.767 322.273 683.914C324.484 680.061 327.484 677.06 331.274 674.913C335.127 672.702 339.454 671.597 344.254 671.597C349.118 671.597 353.413 672.67 357.14 674.818C360.866 676.966 363.772 679.997 365.856 683.914C368.004 687.767 369.078 692.283 369.078 697.462C369.078 697.841 369.046 698.283 368.983 698.789C368.983 699.294 368.951 699.768 368.888 700.21H326.158V693.672H364.151L360.456 695.946C360.519 692.725 359.856 689.851 358.466 687.324C357.076 684.798 355.15 682.84 352.687 681.45C350.286 679.997 347.476 679.271 344.254 679.271C341.096 679.271 338.285 679.997 335.822 681.45C333.358 682.84 331.432 684.829 330.042 687.419C328.653 689.946 327.958 692.851 327.958 696.136V697.652C327.958 700.999 328.716 704 330.232 706.653C331.811 709.242 333.99 711.264 336.769 712.716C339.548 714.169 342.738 714.895 346.339 714.895C349.307 714.895 351.992 714.39 354.392 713.38C356.855 712.369 359.003 710.853 360.835 708.832L365.856 714.706C363.582 717.359 360.74 719.38 357.329 720.77C353.981 722.159 350.223 722.854 346.054 722.854ZM386.149 722.286V672.07H395.244V693.388H423.858V672.07H432.953V722.286H423.858V701.252H395.244V722.286H386.149ZM453.6 722.286V672.07H462.695V708.642L493.488 672.07H501.731V722.286H492.635V685.714L461.937 722.286H453.6ZM554.465 722.286V704.663L555.886 706.368H539.874C533.179 706.368 527.936 704.947 524.146 702.105C520.42 699.262 518.556 695.125 518.556 689.693C518.556 683.882 520.546 679.492 524.525 676.523C528.568 673.555 533.937 672.07 540.632 672.07H562.613V722.286H554.465ZM518.082 722.286L531.726 703.052H541.106L527.841 722.286H518.082ZM554.465 701.821V677.471L555.886 680.029H540.916C536.747 680.029 533.526 680.819 531.252 682.398C528.978 683.914 527.841 686.44 527.841 689.977C527.841 696.546 532.073 699.831 540.537 699.831H555.886L554.465 701.821Z" fill="#7A0916" fill-opacity="0.05"/>
<g filter="url(#filter3_d_1_1163)">
<path d="M81.4968 493.001V455.008H59.7053L59.2315 464.672C59.1052 467.83 58.8841 470.894 58.5683 473.862C58.3157 476.768 57.8735 479.452 57.2419 481.916C56.6734 484.379 55.8207 486.4 54.6837 487.98C53.5468 489.559 52.0309 490.538 50.1359 490.917L41.1351 489.306C43.0932 489.369 44.6723 488.738 45.8724 487.411C47.0725 486.021 47.9884 484.127 48.62 481.726C49.3148 479.326 49.8201 476.61 50.1359 473.578C50.4518 470.483 50.7044 467.293 50.8939 464.009L51.6519 447.049H90.5924V493.001H81.4968ZM39.1454 508.918V489.306H98.2668V508.918H89.7397V497.265H47.7673V508.918H39.1454ZM113.077 497.265V447.049H136.384C142.259 447.049 146.869 448.186 150.217 450.46C153.628 452.671 155.333 455.829 155.333 459.935C155.333 464.04 153.723 467.23 150.501 469.504C147.343 471.715 143.143 472.82 137.9 472.82L139.321 470.357C145.322 470.357 149.775 471.462 152.681 473.673C155.586 475.884 157.039 479.137 157.039 483.432C157.039 487.79 155.397 491.201 152.112 493.664C148.891 496.065 143.932 497.265 137.237 497.265H113.077ZM121.983 490.253H136.574C140.364 490.253 143.206 489.685 145.101 488.548C146.996 487.348 147.943 485.453 147.943 482.863C147.943 480.21 147.059 478.284 145.29 477.084C143.585 475.821 140.869 475.189 137.142 475.189H121.983V490.253ZM121.983 468.651H135.626C139.1 468.651 141.722 468.02 143.49 466.756C145.322 465.43 146.238 463.598 146.238 461.261C146.238 458.861 145.322 457.061 143.49 455.861C141.722 454.661 139.1 454.061 135.626 454.061H121.983V468.651ZM174.236 497.265V447.049H183.332V483.621L214.124 447.049H222.367V497.265H213.271V460.693L182.574 497.265H174.236ZM302.577 497.265L286.565 472.82L294.05 468.272L313.378 497.265H302.577ZM276.143 476.042V468.272H292.44V476.042H276.143ZM294.903 473.199L286.281 472.062L302.293 447.049H312.052L294.903 473.199ZM246.204 497.265H235.403L254.636 468.272L262.121 472.82L246.204 497.265ZM278.891 497.265H269.795V447.049H278.891V497.265ZM272.543 476.042H256.341V468.272H272.543V476.042ZM253.878 473.199L236.729 447.049H246.393L262.405 472.062L253.878 473.199ZM347.042 497.833C341.673 497.833 336.936 496.728 332.83 494.517C328.788 492.306 325.629 489.274 323.356 485.421C321.145 481.568 320.039 477.147 320.039 472.157C320.039 467.167 321.113 462.746 323.261 458.893C325.472 455.04 328.472 452.039 332.262 449.892C336.115 447.681 340.441 446.576 345.242 446.576C350.105 446.576 354.401 447.649 358.127 449.797C361.854 451.945 364.759 454.976 366.844 458.893C368.991 462.746 370.065 467.262 370.065 472.441C370.065 472.82 370.034 473.262 369.971 473.768C369.971 474.273 369.939 474.747 369.876 475.189H327.145V468.651H365.138L361.443 470.925C361.507 467.704 360.843 464.83 359.454 462.303C358.064 459.777 356.138 457.819 353.674 456.429C351.274 454.976 348.463 454.25 345.242 454.25C342.084 454.25 339.273 454.976 336.809 456.429C334.346 457.819 332.42 459.808 331.03 462.398C329.64 464.925 328.946 467.83 328.946 471.115V472.631C328.946 475.978 329.704 478.979 331.219 481.632C332.799 484.221 334.978 486.243 337.757 487.695C340.536 489.148 343.726 489.874 347.326 489.874C350.295 489.874 352.979 489.369 355.38 488.359C357.843 487.348 359.991 485.832 361.822 483.811L366.844 489.685C364.57 492.338 361.728 494.359 358.317 495.749C354.969 497.138 351.211 497.833 347.042 497.833ZM387.137 497.265V447.049H396.232V468.367H424.845V447.049H433.941V497.265H424.845V476.231H396.232V497.265H387.137ZM454.587 497.265V447.049H463.683V483.621L494.475 447.049H502.718V497.265H493.623V460.693L462.925 497.265H454.587ZM555.453 497.265V479.642L556.874 481.347H540.862C534.166 481.347 528.924 479.926 525.134 477.084C521.407 474.241 519.544 470.104 519.544 464.672C519.544 458.861 521.534 454.471 525.513 451.502C529.555 448.534 534.924 447.049 541.62 447.049H563.601V497.265H555.453ZM519.07 497.265L532.714 478.031H542.093L528.829 497.265H519.07ZM555.453 476.8V452.45L556.874 455.008H541.904C537.735 455.008 534.514 455.798 532.24 457.377C529.966 458.893 528.829 461.419 528.829 464.956C528.829 471.525 533.061 474.81 541.525 474.81H556.874L555.453 476.8Z" fill="#7A0916"/>
</g>
<path d="M109.916 382.702V340.856H129.339C134.234 340.856 138.076 341.803 140.866 343.698C143.708 345.54 145.13 348.172 145.13 351.593C145.13 355.015 143.787 357.673 141.103 359.568C138.471 361.41 134.971 362.331 130.602 362.331L131.786 360.278C136.787 360.278 140.498 361.2 142.919 363.042C145.34 364.884 146.551 367.595 146.551 371.174C146.551 374.806 145.182 377.649 142.445 379.701C139.761 381.702 135.629 382.702 130.049 382.702H109.916ZM117.337 376.859H129.496C132.655 376.859 135.023 376.385 136.602 375.438C138.181 374.438 138.971 372.859 138.971 370.701C138.971 368.49 138.234 366.884 136.76 365.884C135.339 364.832 133.076 364.305 129.97 364.305H117.337V376.859ZM117.337 358.857H128.707C131.602 358.857 133.786 358.331 135.26 357.278C136.787 356.173 137.55 354.646 137.55 352.699C137.55 350.699 136.787 349.198 135.26 348.198C133.786 347.198 131.602 346.698 128.707 346.698H117.337V358.857ZM179.298 383.175C175.087 383.175 171.35 382.254 168.086 380.412C164.823 378.57 162.244 376.043 160.349 372.832C158.454 369.569 157.506 365.884 157.506 361.779C157.506 357.62 158.454 353.936 160.349 350.725C162.244 347.514 164.823 345.014 168.086 343.224C171.35 341.382 175.087 340.461 179.298 340.461C183.456 340.461 187.167 341.382 190.43 343.224C193.747 345.014 196.326 347.514 198.168 350.725C200.063 353.883 201.01 357.568 201.01 361.779C201.01 365.937 200.063 369.621 198.168 372.832C196.326 376.043 193.747 378.57 190.43 380.412C187.167 382.254 183.456 383.175 179.298 383.175ZM179.298 376.543C181.982 376.543 184.377 375.938 186.483 374.727C188.641 373.517 190.325 371.806 191.536 369.595C192.746 367.332 193.352 364.726 193.352 361.779C193.352 358.778 192.746 356.199 191.536 354.041C190.325 351.83 188.641 350.12 186.483 348.909C184.377 347.698 181.982 347.093 179.298 347.093C176.613 347.093 174.218 347.698 172.113 348.909C170.007 350.12 168.323 351.83 167.06 354.041C165.797 356.199 165.165 358.778 165.165 361.779C165.165 364.726 165.797 367.332 167.06 369.595C168.323 371.806 170.007 373.517 172.113 374.727C174.218 375.938 176.613 376.543 179.298 376.543ZM239.081 382.702V340.856H258.504C263.399 340.856 267.241 341.803 270.031 343.698C272.874 345.54 274.295 348.172 274.295 351.593C274.295 355.015 272.953 357.673 270.268 359.568C267.636 361.41 264.136 362.331 259.767 362.331L260.951 360.278C265.952 360.278 269.663 361.2 272.084 363.042C274.505 364.884 275.716 367.595 275.716 371.174C275.716 374.806 274.347 377.649 271.61 379.701C268.926 381.702 264.794 382.702 259.214 382.702H239.081ZM246.503 376.859H258.662C261.82 376.859 264.189 376.385 265.768 375.438C267.347 374.438 268.136 372.859 268.136 370.701C268.136 368.49 267.399 366.884 265.926 365.884C264.504 364.832 262.241 364.305 259.135 364.305H246.503V376.859ZM246.503 358.857H257.872C260.767 358.857 262.952 358.331 264.425 357.278C265.952 356.173 266.715 354.646 266.715 352.699C266.715 350.699 265.952 349.198 264.425 348.198C262.952 347.198 260.767 346.698 257.872 346.698H246.503V358.857ZM312.727 383.175C309.253 383.175 306.068 382.386 303.173 380.807C300.331 379.175 298.041 376.78 296.304 373.622C294.62 370.464 293.777 366.516 293.777 361.779C293.777 357.041 294.593 353.094 296.225 349.935C297.909 346.777 300.173 344.409 303.015 342.829C305.91 341.25 309.147 340.461 312.727 340.461C316.832 340.461 320.464 341.356 323.622 343.145C326.781 344.935 329.281 347.435 331.123 350.646C332.965 353.804 333.887 357.515 333.887 361.779C333.887 366.042 332.965 369.779 331.123 372.99C329.281 376.201 326.781 378.701 323.622 380.491C320.464 382.281 316.832 383.175 312.727 383.175ZM290.54 398.019V340.856H297.804V352.146L297.33 361.858L298.12 371.569V398.019H290.54ZM312.095 376.543C314.779 376.543 317.174 375.938 319.28 374.727C321.438 373.517 323.122 371.806 324.333 369.595C325.596 367.332 326.228 364.726 326.228 361.779C326.228 358.778 325.596 356.199 324.333 354.041C323.122 351.83 321.438 350.12 319.28 348.909C317.174 347.698 314.779 347.093 312.095 347.093C309.463 347.093 307.068 347.698 304.91 348.909C302.805 350.12 301.12 351.83 299.857 354.041C298.646 356.199 298.041 358.778 298.041 361.779C298.041 364.726 298.646 367.332 299.857 369.595C301.12 371.806 302.805 373.517 304.91 374.727C307.068 375.938 309.463 376.543 312.095 376.543ZM366.493 383.175C362.019 383.175 358.071 382.254 354.65 380.412C351.281 378.57 348.649 376.043 346.754 372.832C344.912 369.621 343.991 365.937 343.991 361.779C343.991 357.62 344.886 353.936 346.675 350.725C348.518 347.514 351.018 345.014 354.176 343.224C357.387 341.382 360.993 340.461 364.993 340.461C369.046 340.461 372.625 341.356 375.731 343.145C378.836 344.935 381.258 347.461 382.995 350.725C384.784 353.936 385.679 357.699 385.679 362.015C385.679 362.331 385.653 362.7 385.6 363.121C385.6 363.542 385.574 363.937 385.521 364.305H349.913V358.857H381.573L378.494 360.752C378.547 358.068 377.994 355.673 376.836 353.567C375.678 351.462 374.073 349.83 372.02 348.672C370.02 347.461 367.677 346.856 364.993 346.856C362.361 346.856 360.019 347.461 357.966 348.672C355.913 349.83 354.308 351.488 353.15 353.646C351.992 355.752 351.413 358.173 351.413 360.91V362.173C351.413 364.963 352.044 367.463 353.308 369.674C354.624 371.832 356.439 373.517 358.755 374.727C361.071 375.938 363.73 376.543 366.73 376.543C369.204 376.543 371.441 376.122 373.441 375.28C375.494 374.438 377.284 373.174 378.81 371.49L382.995 376.385C381.1 378.596 378.731 380.28 375.889 381.438C373.099 382.596 369.967 383.175 366.493 383.175ZM400.399 382.702V340.856H408.215L426.217 371.806H423.059L441.534 340.856H448.64V382.702H441.771V349.383L443.034 350.093L426.138 377.964H422.822L405.847 349.541L407.347 349.225V382.702H400.399ZM493.119 382.702V368.016L494.304 369.437H480.96C475.381 369.437 471.012 368.253 467.854 365.884C464.748 363.516 463.196 360.068 463.196 355.541C463.196 350.699 464.854 347.04 468.17 344.566C471.538 342.093 476.013 340.856 481.592 340.856H499.91V382.702H493.119ZM462.801 382.702L474.17 366.674H481.987L470.933 382.702H462.801ZM493.119 365.647V345.356L494.304 347.488H481.829C478.355 347.488 475.67 348.146 473.775 349.462C471.881 350.725 470.933 352.83 470.933 355.778C470.933 361.252 474.46 363.989 481.513 363.989H494.304L493.119 365.647Z" fill="#7A0916"/>
<path d="M300.023 252.151C298.423 252.151 296.865 251.877 295.349 251.33C293.833 250.824 292.527 250.066 291.432 249.056L294.022 244.508C294.864 245.308 295.791 245.919 296.801 246.34C297.812 246.761 298.886 246.971 300.023 246.971C301.497 246.971 302.718 246.592 303.686 245.834C304.655 245.076 305.56 243.729 306.402 241.792L308.487 237.181L309.118 236.423L322.256 206.041H328.194L311.961 242.866C310.992 245.224 309.897 247.077 308.676 248.424C307.497 249.772 306.192 250.719 304.76 251.267C303.328 251.856 301.749 252.151 300.023 252.151ZM307.981 240.592L292.696 206.041H299.012L312.024 235.855L307.981 240.592ZM330.145 239.518L344.546 220.822L344.483 223.917L330.777 206.041H337.535L348.02 219.811H345.431L355.916 206.041H362.548L348.652 224.043L348.715 220.822L363.243 239.518H356.358L345.304 224.864L347.768 225.243L336.904 239.518H330.145ZM385.812 239.897C382.443 239.897 379.454 239.16 376.843 237.686C374.232 236.212 372.169 234.191 370.653 231.623C369.137 229.012 368.379 226.064 368.379 222.78C368.379 219.453 369.137 216.505 370.653 213.937C372.169 211.368 374.232 209.368 376.843 207.936C379.454 206.462 382.443 205.725 385.812 205.725C389.139 205.725 392.107 206.462 394.718 207.936C397.371 209.368 399.434 211.368 400.908 213.937C402.424 216.463 403.182 219.411 403.182 222.78C403.182 226.106 402.424 229.054 400.908 231.623C399.434 234.191 397.371 236.212 394.718 237.686C392.107 239.16 389.139 239.897 385.812 239.897ZM385.812 234.591C387.96 234.591 389.876 234.107 391.56 233.139C393.287 232.17 394.634 230.801 395.603 229.033C396.571 227.222 397.055 225.138 397.055 222.78C397.055 220.379 396.571 218.316 395.603 216.59C394.634 214.821 393.287 213.452 391.56 212.484C389.876 211.515 387.96 211.031 385.812 211.031C383.665 211.031 381.749 211.515 380.064 212.484C378.38 213.452 377.032 214.821 376.022 216.59C375.011 218.316 374.506 220.379 374.506 222.78C374.506 225.138 375.011 227.222 376.022 229.033C377.032 230.801 378.38 232.17 380.064 233.139C381.749 234.107 383.665 234.591 385.812 234.591ZM437.518 236.676V211.347H422.99L422.674 217.79C422.59 219.895 422.443 221.937 422.232 223.917C422.064 225.854 421.769 227.643 421.348 229.286C420.969 230.928 420.4 232.275 419.642 233.328C418.884 234.381 417.874 235.033 416.61 235.286L410.61 234.212C411.915 234.254 412.968 233.833 413.768 232.949C414.568 232.023 415.179 230.759 415.6 229.159C416.063 227.559 416.4 225.748 416.61 223.727C416.821 221.664 416.989 219.537 417.116 217.348L417.621 206.041H443.581V236.676H437.518ZM409.283 247.287V234.212H448.698V247.287H443.013V239.518H415.031V247.287H409.283ZM459.558 239.518V206.041H465.622V230.422L486.15 206.041H491.645V239.518H485.581V215.137L465.116 239.518H459.558ZM513.008 239.518V209.768L514.524 211.347H500.754V206.041H531.325V211.347H517.619L519.072 209.768V239.518H513.008Z" fill="#5D6031"/>
<path d="M82.5644 148.04C79.6904 148.04 77.1244 147.441 74.8663 146.244C72.6424 145.012 70.8975 143.336 69.6315 141.214C68.3656 139.093 67.7327 136.681 67.7327 133.978C67.7327 131.241 68.3656 128.829 69.6315 126.742C70.8975 124.621 72.6424 122.961 74.8663 121.764C77.1244 120.566 79.6904 119.968 82.5644 119.968C85.233 119.968 87.5767 120.515 89.5953 121.61C91.6481 122.67 93.2048 124.244 94.2655 126.331L89.3387 129.205C88.5175 127.905 87.5082 126.947 86.3108 126.331C85.1475 125.715 83.8816 125.407 82.513 125.407C80.9392 125.407 79.5193 125.75 78.2534 126.434C76.9875 127.118 75.9953 128.11 75.2768 129.411C74.5583 130.676 74.1991 132.199 74.1991 133.978C74.1991 135.757 74.5583 137.297 75.2768 138.597C75.9953 139.863 76.9875 140.838 78.2534 141.522C79.5193 142.206 80.9392 142.549 82.513 142.549C83.8816 142.549 85.1475 142.241 86.3108 141.625C87.5082 141.009 88.5175 140.051 89.3387 138.751L94.2655 141.625C93.2048 143.678 91.6481 145.269 89.5953 146.398C87.5767 147.492 85.233 148.04 82.5644 148.04ZM106.397 147.681V124.176L107.885 125.715H96.7483V120.275H122.409V125.715H111.323L112.812 124.176V147.681H106.397ZM143.24 148.04C141.016 148.04 138.98 147.527 137.133 146.5C135.319 145.474 133.865 143.934 132.77 141.881C131.71 139.794 131.179 137.16 131.179 133.978C131.179 130.762 131.693 128.127 132.719 126.075C133.78 124.022 135.217 122.499 137.03 121.507C138.843 120.481 140.913 119.968 143.24 119.968C145.943 119.968 148.321 120.549 150.373 121.712C152.46 122.876 154.103 124.501 155.3 126.588C156.532 128.675 157.148 131.138 157.148 133.978C157.148 136.818 156.532 139.298 155.3 141.42C154.103 143.507 152.46 145.132 150.373 146.295C148.321 147.458 145.943 148.04 143.24 148.04ZM128.049 157.637V120.275H134.156V126.742L133.951 134.029L134.464 141.317V157.637H128.049ZM142.521 142.549C144.061 142.549 145.43 142.206 146.627 141.522C147.859 140.838 148.834 139.846 149.552 138.546C150.271 137.245 150.63 135.723 150.63 133.978C150.63 132.199 150.271 130.676 149.552 129.411C148.834 128.11 147.859 127.118 146.627 126.434C145.43 125.75 144.061 125.407 142.521 125.407C140.982 125.407 139.596 125.75 138.364 126.434C137.133 127.118 136.158 128.11 135.439 129.411C134.721 130.676 134.361 132.199 134.361 133.978C134.361 135.723 134.721 137.245 135.439 138.546C136.158 139.846 137.133 140.838 138.364 141.522C139.596 142.206 140.982 142.549 142.521 142.549ZM180.796 147.681V142.138L180.437 140.958V131.258C180.437 129.376 179.873 127.922 178.744 126.896C177.614 125.835 175.904 125.305 173.611 125.305C172.072 125.305 170.549 125.544 169.044 126.023C167.573 126.502 166.324 127.17 165.298 128.025L162.783 123.355C164.254 122.226 165.999 121.387 168.018 120.84C170.07 120.258 172.192 119.968 174.381 119.968C178.35 119.968 181.412 120.925 183.568 122.841C185.757 124.723 186.852 127.648 186.852 131.617V147.681H180.796ZM172.174 148.04C170.122 148.04 168.325 147.698 166.786 147.013C165.246 146.295 164.049 145.32 163.193 144.088C162.372 142.822 161.962 141.402 161.962 139.829C161.962 138.289 162.321 136.903 163.039 135.672C163.792 134.44 165.007 133.465 166.683 132.746C168.36 132.028 170.584 131.669 173.355 131.669H181.31V135.928H173.817C171.627 135.928 170.156 136.287 169.403 137.006C168.65 137.69 168.274 138.546 168.274 139.572C168.274 140.735 168.736 141.659 169.66 142.343C170.584 143.028 171.867 143.37 173.509 143.37C175.083 143.37 176.485 143.01 177.717 142.292C178.983 141.574 179.89 140.513 180.437 139.11L181.515 142.959C180.899 144.567 179.787 145.816 178.179 146.706C176.605 147.595 174.604 148.04 172.174 148.04ZM191.723 147.681L203.783 131.977L203.681 135.415L192.185 120.275H199.319L207.376 131.053H204.656L212.765 120.275H219.693L208.094 135.415L208.146 131.977L220.155 147.681H212.918L204.451 136.236L207.119 136.595L198.805 147.681H191.723Z" fill="#5D6031"/>
</g>
<defs>
<filter id="filter0_f_1_1163" x="-68.3918" y="80.3799" width="693.611" height="751.982" filterUnits="userSpaceOnUse" color-interpolation-filters="sRGB">
<feFlood flood-opacity="0" result="BackgroundImageFix"/>
<feBlend mode="normal" in="SourceGraphic" in2="BackgroundImageFix" result="shape"/>
<feGaussianBlur stdDeviation="1.97387" result="effect1_foregroundBlur_1_1163"/>
</filter>
<filter id="filter1_f_1_1163" x="-52.0069" y="-33.7851" width="498.588" height="514.96" filterUnits="userSpaceOnUse" color-interpolation-filters="sRGB">
<feFlood flood-opacity="0" result="BackgroundImageFix"/>
<feBlend mode="normal" in="SourceGraphic" in2="BackgroundImageFix" result="shape"/>
<feGaussianBlur stdDeviation="1.97387" result="effect1_foregroundBlur_1_1163"/>
</filter>
<filter id="filter2_f_1_1163" x="323.062" y="582.304" width="300.03" height="272.93" filterUnits="userSpaceOnUse" color-interpolation-filters="sRGB">
<feFlood flood-opacity="0" result="BackgroundImageFix"/>
<feBlend mode="normal" in="SourceGraphic" in2="BackgroundImageFix" result="shape"/>
<feGaussianBlur stdDeviation="1.97387" result="effect1_foregroundBlur_1_1163"/>
</filter>
<filter id="filter3_d_1_1163" x="32.2369" y="446.576" width="540.246" height="78.1337" filterUnits="userSpaceOnUse" color-interpolation-filters="sRGB">
<feFlood flood-opacity="0" result="BackgroundImageFix"/>
<feColorMatrix in="SourceAlpha" type="matrix" values="0 0 0 0 0 0 0 0 0 0 0 0 0 0 0 0 0 0 127 0" result="hardAlpha"/>
<feOffset dx="0.986936" dy="7.89549"/>
<feGaussianBlur stdDeviation="3.94774"/>
<feComposite in2="hardAlpha" operator="out"/>
<feColorMatrix type="matrix" values="0 0 0 0 1 0 0 0 0 1 0 0 0 0 1 0 0 0 0.75 0"/>
<feBlend mode="normal" in2="BackgroundImageFix" result="effect1_dropShadow_1_1163"/>
<feBlend mode="normal" in="SourceGraphic" in2="effect1_dropShadow_1_1163" result="shape"/>
</filter>
<clipPath id="clip0_1_1163">
<rect width="587.227" height="831" fill="white"/>
</clipPath>
</defs>
</svg>
