<svg width="62" height="55" viewBox="0 0 62 55" fill="none" xmlns="http://www.w3.org/2000/svg">
<path d="M29.9004 15.3926C30.6302 8.86586 34.7825 4.85352 41.2349 3.4536C46.1827 2.38014 53.6259 3.02113 56.5621 7.8471C60.4665 14.2644 59.9177 21.2529 55.9161 27.4902C52.7401 32.4405 48.7316 36.7845 44.7683 41.1333C41.0035 45.2643 37.1678 49.2496 32.5483 52.4415M29.5286 14.5729C26.159 8.62213 23.8496 7.21853 17.5637 6.89747C12.7437 6.65129 5.84164 8.42389 3.82656 13.4674C1.14701 20.1739 2.74462 26.7269 7.47379 32.0263C11.2272 36.2324 15.6699 39.7322 20.0707 43.2437C24.2512 46.5794 27.7151 49.3253 32.5495 52.4415" stroke="#FFD0C5" stroke-width="5" stroke-linecap="round"/>
</svg>
