<svg width="52" height="48" viewBox="0 0 52 48" fill="none" xmlns="http://www.w3.org/2000/svg">
<path d="M27.3746 19.1228C31.464 15.2123 36.4258 14.8551 41.4642 17.4958C45.3276 19.5207 49.8929 24.0579 49.1665 28.8703C48.2006 35.2696 43.9756 39.5853 37.8837 41.4962C33.0487 43.0129 27.9986 43.6687 22.9758 44.3527C18.2044 45.0025 13.4667 45.5168 8.6495 45.0734M27.5818 18.3755C28.6434 12.5802 27.8927 10.3762 23.9155 6.69003C20.8658 3.86351 15.3243 1.22068 11.2052 3.4405C5.72775 6.3923 3.16219 11.6064 3.35915 17.7226C3.51547 22.5769 4.51763 27.3453 5.48569 32.0984C6.40529 36.6134 7.17719 40.3427 8.65028 45.0741" stroke="#FFD0C5" stroke-width="5" stroke-linecap="round"/>
</svg>
