<svg width="99" height="88" viewBox="0 0 99 88" fill="none" xmlns="http://www.w3.org/2000/svg">
<path d="M47.9244 24.4767C48.9166 14.0265 55.4455 7.50344 65.7201 5.09404C73.5987 3.2465 85.5112 4.07235 90.3325 11.7066C96.7435 21.8583 96.0529 33.0416 89.824 43.1165C84.8803 51.1126 78.59 58.1618 72.3721 65.2175C66.4656 71.92 60.442 78.3915 53.1444 83.6158M47.3083 23.1766C41.7644 13.7563 38.0362 11.5747 27.9818 11.2293C20.2721 10.9644 9.28892 13.9814 6.20306 22.0954C2.09964 32.885 4.82767 43.315 12.527 51.6581C18.6377 58.2799 25.8311 63.7546 32.9579 69.2491C39.728 74.4686 45.3371 78.7646 53.1463 83.6158" stroke="#DCF2EB" stroke-width="7" stroke-linecap="round"/>
</svg>
