<svg width="58" height="57" viewBox="0 0 58 57" fill="none" xmlns="http://www.w3.org/2000/svg">
<path d="M54.355 36.2234C60.2042 33.6456 42.0345 22.5883 42.0345 22.5883C42.0345 22.5883 48.2457 8.20281 47.0283 3.41748C45.8109 -1.36785 30.1335 11.1015 30.1335 11.1015C30.1335 11.1015 16.1512 1.17016 12.4246 3.85182C8.69801 6.53347 14.1889 20.9597 14.1889 20.9597C14.1889 20.9597 1.16249 33.4159 2.15627 37.3924C3.15004 41.3689 20.9529 39.1101 20.9529 39.1101C20.9529 39.1101 24.5664 52.0199 28.4141 54.1032C32.2619 56.1864 35.8668 38.7761 35.8668 38.7761C35.8668 38.7761 48.5058 38.8012 54.355 36.2234Z" stroke="#EDF9F4" stroke-width="4" stroke-linecap="round"/>
</svg>
