<svg width="329" height="1018" viewBox="0 0 329 1018" fill="none" xmlns="http://www.w3.org/2000/svg">
<path d="M94.722 2.41291C91.6363 -0.749347 86.5714 -0.811432 83.4091 2.27424C80.2469 5.3599 80.1848 10.4248 83.2705 13.5871L94.722 2.41291ZM17.9962 1008.5L11.8544 1003.37L0.238907 1017.29L18.3485 1016.49L17.9962 1008.5ZM83.2705 13.5871C186.077 118.946 291.653 325.48 309.779 526.157C318.828 626.351 306.023 724.481 260.796 807.687C215.661 890.723 137.849 959.623 15.4389 1000.92L20.5535 1016.08C146.394 973.627 227.603 902.256 274.853 815.328C322.011 728.571 334.956 627.045 325.714 524.718C307.256 320.354 200.082 110.388 94.722 2.41291L83.2705 13.5871ZM24.138 1013.63L130.138 886.626L117.854 876.374L11.8544 1003.37L24.138 1013.63ZM18.3485 1016.49L199.848 1008.49L199.144 992.508L17.6439 1000.51L18.3485 1016.49Z" fill="#57AE75"/>
</svg>
