<svg width="1779" height="1818" viewBox="0 0 1779 1818" fill="none" xmlns="http://www.w3.org/2000/svg">
<path d="M1591 333.501L1598.43 330.543L1591 333.501ZM1535.5 903.001L1539.47 909.945L1535.5 903.001ZM25.9959 959.5L18.439 956.875L25.9959 959.5ZM362.997 1801.5L360.089 1808.95L381.109 1817.15L369.95 1797.54L362.997 1801.5ZM1756.5 244.001L1763.45 247.954L1756.5 244.001ZM1639 118.501L1631.01 119.033L1639 118.501ZM1482.95 1.01335C1478.54 0.763752 1474.76 4.13742 1474.51 8.54864C1474.26 12.9599 1477.63 16.7382 1482.04 16.9878L1482.95 1.01335ZM1583.56 336.458C1610.58 404.351 1636.49 464.04 1656.45 518.459C1676.36 572.778 1689.92 620.785 1692.32 664.651C1694.71 708.265 1686.07 747.77 1661.44 785.354C1636.68 823.125 1595.4 859.513 1531.52 896.057L1539.47 909.945C1604.59 872.688 1648.19 834.759 1674.82 794.125C1701.58 753.304 1710.85 710.315 1708.3 663.776C1705.76 617.487 1691.54 567.68 1671.47 512.951C1651.44 458.323 1625.16 397.733 1598.43 330.543L1583.56 336.458ZM1531.52 896.057C1492.67 918.287 1442.33 930.125 1383.13 934.197C1323.98 938.265 1256.53 934.549 1183.83 926.101C1038.27 909.188 873.099 873.514 712.77 844.256C552.894 815.081 397.782 792.279 273.857 801.79C149.95 811.3 54.3679 853.455 18.439 956.875L33.5529 962.125C66.3235 867.796 153.467 827.077 275.081 817.743C396.679 808.411 549.885 830.797 709.897 859.996C869.456 889.113 1035.74 925.002 1181.98 941.994C1255.17 950.499 1323.71 954.322 1384.23 950.16C1444.69 946.001 1497.7 933.839 1539.47 909.945L1531.52 896.057ZM18.439 956.875C-9.09175 1036.12 -6.97912 1181.81 42.9495 1340.57C92.9895 1499.69 191.401 1673.13 357.969 1807.72L368.025 1795.28C204.32 1663 107.48 1492.43 58.2125 1335.77C8.83372 1178.76 7.58261 1036.88 33.5529 962.125L18.439 956.875ZM1598.43 330.543C1584.57 295.722 1591.89 264.995 1609.72 240.02C1627.78 214.738 1656.66 195.426 1685.13 184.963C1699.32 179.748 1713.12 176.842 1725.08 176.394C1737.18 175.941 1746.68 178.02 1752.96 181.963C1758.82 185.635 1762.47 191.244 1762.76 200.007C1763.07 209.278 1759.57 222.41 1749.54 240.047L1763.45 247.954C1774.18 229.091 1779.2 212.932 1778.75 199.48C1778.29 185.52 1771.93 174.971 1761.47 168.409C1751.44 162.119 1738.33 159.887 1724.49 160.405C1710.52 160.928 1695.05 164.272 1679.61 169.945C1648.83 181.258 1617.02 202.272 1596.7 230.72C1576.17 259.476 1567.42 295.884 1583.56 336.458L1598.43 330.543ZM1749.54 240.047C1734.89 265.826 1721.85 279.443 1711.29 284.356C1706.28 286.683 1702.04 286.966 1698.27 285.931C1694.37 284.861 1690.12 282.146 1685.68 277.016C1676.63 266.563 1668.22 247.738 1661.42 220.455C1654.67 193.406 1649.71 158.916 1646.98 117.968L1631.01 119.033C1633.78 160.585 1638.84 196.075 1645.89 224.327C1652.88 252.346 1662.04 274.146 1673.58 287.485C1679.43 294.25 1686.23 299.223 1694.04 301.362C1701.97 303.537 1710.1 302.552 1718.04 298.864C1733.34 291.745 1748.45 274.342 1763.45 247.954L1749.54 240.047ZM1646.98 117.968C1644.69 83.7161 1635.05 58.8038 1620.81 40.9298C1606.57 23.0555 1588.25 12.8678 1569.74 7.16705C1551.3 1.49125 1532.5 0.20401 1516.9 0.18003C1509.09 0.168015 1501.98 0.475017 1496.12 0.72963C1490.06 0.993039 1485.76 1.17246 1482.95 1.01335L1482.04 16.9878C1485.86 17.2035 1491.14 16.961 1496.81 16.7146C1502.69 16.4593 1509.47 16.1686 1516.88 16.18C1531.73 16.2029 1548.75 17.4469 1565.03 22.4587C1581.23 27.4455 1596.51 36.1017 1608.3 50.8993C1620.09 65.6973 1628.9 87.285 1631.01 119.033L1646.98 117.968ZM369.95 1797.54L285.448 1649.04L271.542 1656.96L356.044 1805.46L369.95 1797.54ZM365.905 1794.05L213.403 1734.55L207.587 1749.45L360.089 1808.95L365.905 1794.05Z" fill="#57AE75"/>
</svg>
